<?xml version="1.0" encoding="UTF-8" standalone="no"?>
<!DOCTYPE svg PUBLIC "-//W3C//DTD SVG 1.1//EN" "http://www.w3.org/Graphics/SVG/1.1/DTD/svg11.dtd">
<svg width="100%" height="100%" viewBox="0 0 342 341" version="1.1" xmlns="http://www.w3.org/2000/svg" xmlns:xlink="http://www.w3.org/1999/xlink" xml:space="preserve" xmlns:serif="http://www.serif.com/" style="fill-rule:evenodd;clip-rule:evenodd;stroke-linecap:round;stroke-linejoin:round;stroke-miterlimit:1.5;">
    <g transform="matrix(1.33333,0,0,1.33333,0,0)">
        <g id="front" transform="matrix(1,0,0,1,0.299827,-0.143355)">
            <rect x="-0.3" y="0.143" width="256.162" height="255.349" style="fill:none;"/>
            <g id="Ebene1" transform="matrix(0.407441,0,0,0.449463,29.2549,-24.9611)">
                <g id="Body" transform="matrix(2.45434,0,0,2.71766,53.7816,66.8172)">
                    <circle cx="74.345" cy="137.101" r="49.199"/>
                </g>
                <g id="Face" transform="matrix(1,0,0,1,4.90869,0)">
                    <path d="M139.058,199.679C117.944,215.902 80.758,161.582 80.304,192.268C79.901,219.51 84.449,252.975 87.642,290.909L367.414,240.71C369.076,212.812 337.821,144.538 320.792,122.682C308.148,106.455 285.728,184.541 271.119,187.448C251.907,191.272 239.366,160.548 233.041,143.719C224.089,119.897 207.37,71.382 176.674,78.662C152.197,86.949 140.113,172.598 139.058,199.679Z" style="fill:rgb(0,136,126);stroke:rgb(12,0,0);stroke-width:8.86px;"/>
                    <path d="M144.399,371.666C143.545,370.929 116.685,318.496 115.421,312.313C90.794,314.735 85.631,304.454 86.957,289.772C86.612,280.181 90.962,275.007 97.687,272.069C108.776,269.653 117.404,270.642 122.436,276.606C201.242,238.899 279.018,226.509 365.624,233.197L376.958,267.29L371.177,292.186C371.177,292.186 350.235,299.637 350.921,299.973C354.036,301.498 346.005,355.553 329.621,368.678C314.051,381.149 277.257,457.558 236.817,460.879C201.077,463.814 161.737,386.625 144.399,371.666Z" style="fill:rgb(217,145,100);stroke:rgb(12,0,0);stroke-width:8.86px;"/>
                    <path d="M124.164,255.467C121.401,272.896 137.053,286.472 137.053,286.472C141.421,295.489 107.861,278.931 102.475,275.827C93.758,270.802 88.309,281.383 88.665,298.697C88.871,308.721 115.263,315.64 116.658,311.187C103.824,321.957 90.055,325.919 75.393,323.385C83.525,317.962 85.927,312.699 84.14,307.552C76.993,298.041 66.231,295.048 50.434,293.75C61.534,280.253 81.581,214.427 92.385,211.566C98.787,208.366 100.402,242.107 103.305,245.89C103.305,245.89 126.219,242.507 124.164,255.467Z" style="fill:rgb(2,0,0);stroke:rgb(12,0,0);stroke-width:5.06px;"/>
                    <path d="M308.088,181.809L331.029,222.944L319.856,239.907L339.758,246.874L331.315,269.244C338.956,269.594 347.382,268.056 354.829,258.223C366.446,258.357 371.774,265.671 370.861,277.203C370.099,286.832 365.407,290.977 345.729,295.695L340.589,306.67L352.71,305.604L360.876,314.278L364.308,300.026C372.842,304.039 381.437,305.517 390.113,303.62C387.715,296.361 384.048,289.024 378.526,281.574C389.104,277.345 397.11,271.351 403.114,263.983C396.716,256.627 386.45,250.19 373.28,244.442C382.722,239.761 391.421,234.438 395.925,224.436C386.595,214.405 373.758,197.769 364.582,200.726L308.088,181.809Z" style="fill:rgb(3,0,0);stroke:rgb(12,0,0);stroke-width:5.06px;"/>
                    <g transform="matrix(2.45434,0,0,2.22488,-70.0832,55.8544)">
                        <path d="M75.95,121.319C118.115,102.403 150.465,101.94 173.533,117.666C168.557,154.23 141.713,177.303 127.15,180.412C111.627,183.727 86.225,161.079 75.95,121.319Z" style="fill:rgb(105,105,105);stroke:rgb(0,136,126);stroke-width:1px;"/>
                    </g>
                    <g transform="matrix(1,0,0,1,-17.3707,7.20932)">
                        <path d="M208.461,253.903C196.227,255.746 183.12,260.695 182.892,274.172C184.794,286.975 198.738,283.691 211.721,283.291C226.775,282.827 240.757,278.452 239.942,264.329C239.257,252.485 221.566,251.929 208.461,253.903Z" style="fill:white;stroke:white;stroke-width:1.75px;"/>
                    </g>
                    <g transform="matrix(1,0,0,1,-17.3707,7.20932)">
                        <path d="M213.965,257.077C206.855,256.908 202.31,258.927 201.364,269.767C202.287,279.271 205.458,279.816 212.129,279.75C220.894,279.663 224.72,279.4 226.112,269.951C225.809,260.83 223.542,257.304 213.965,257.077Z" style="stroke:black;stroke-width:1.75px;"/>
                    </g>
                    <g transform="matrix(1,0,0,1,-4.90514,8.00377)">
                        <path d="M289.412,243.247C277.563,243.291 264.381,246.17 264.034,257.85C263.616,271.921 278.142,274.48 290.402,273.393C304.119,272.175 313.933,268.279 314.172,258.2C314.422,247.67 305.645,243.187 289.412,243.247Z" style="fill:white;stroke:white;stroke-width:1.75px;"/>
                    </g>
                    <g transform="matrix(1,0,0,1,-4.90514,8.00377)">
                        <path d="M273.497,256.46C273.81,249.461 278.466,246.535 287.578,246.185C297.006,246.507 302.499,250.195 303.121,258.495C301.494,267.642 295.665,267.861 288.392,268.574C279.166,267.83 273.095,265.471 273.497,256.46Z" style="stroke:black;stroke-width:1.75px;"/>
                    </g>
                </g>
                <g id="Feet" transform="matrix(1,0,0,1,4.90869,0)">
                    <g transform="matrix(2.45434,0,0,2.22488,-70.0832,55.8544)">
                        <path d="M70.215,240.224L105.023,239.89C105.248,223.451 98.913,215.749 87.702,215.741C76.54,215.733 69.369,225.921 70.215,240.224Z" style="fill:rgb(0,136,126);stroke:rgb(0,79,73);stroke-width:1px;"/>
                    </g>
                    <g transform="matrix(2.45434,0,0,2.22488,95.4653,55.8544)">
                        <path d="M70.215,240.224L105.023,239.89C105.248,223.451 98.913,215.749 87.702,215.741C76.54,215.733 69.369,225.921 70.215,240.224Z" style="fill:rgb(0,136,126);stroke:rgb(0,79,73);stroke-width:1px;"/>
                    </g>
                </g>
                <g transform="matrix(2.45434,0,0,2.22488,187.308,55.8544)">
                    <ellipse cx="71.443" cy="177.963" rx="14.638" ry="14.841" style="fill:rgb(0,136,126);"/>
                </g>
                <g id="Hammer" transform="matrix(1,0,0,1,4.90869,0)">
                    <g transform="matrix(-2.45434,-2.63678e-16,2.63678e-16,-2.22488,250.39,739.075)">
                        <path d="M33.797,154.619L39.926,146.891L82.561,146.891L82.561,161.28L40.192,161.28L33.797,154.619Z" style="fill:rgb(98,98,98);stroke:black;stroke-width:1.69px;"/>
                    </g>
                    <g transform="matrix(2.45434,0,0,2.44019,-57.1098,18.9816)">
                        <rect x="61.278" y="146.044" width="8.945" height="50.419" style="fill:rgb(143,57,0);"/>
                    </g>
                    <g transform="matrix(2.45434,0,0,2.22488,-70.0832,55.8544)">
                        <ellipse cx="71.443" cy="177.963" rx="14.638" ry="14.841" style="fill:rgb(0,136,126);"/>
                    </g>
                </g>
            </g>
        </g>
    </g>
</svg>
