<?xml version="1.0" encoding="UTF-8" standalone="no"?>
<!DOCTYPE svg PUBLIC "-//W3C//DTD SVG 1.1//EN" "http://www.w3.org/Graphics/SVG/1.1/DTD/svg11.dtd">
<svg width="100%" height="100%" viewBox="0 0 257 256" version="1.1" xmlns="http://www.w3.org/2000/svg" xmlns:xlink="http://www.w3.org/1999/xlink" xml:space="preserve" xmlns:serif="http://www.serif.com/" style="fill-rule:evenodd;clip-rule:evenodd;stroke-linecap:round;stroke-linejoin:round;stroke-miterlimit:1.5;">
    <g transform="matrix(1,0,0,1,-712,0)">
        <g id="left" transform="matrix(1,0,0,1,-0.162433,0)">
            <rect x="712.162" y="0" width="256.162" height="255.349" style="fill:none;"/>
            <g id="Body" transform="matrix(0.927686,0,0,1.22149,758.564,4.92741)">
                <circle cx="74.345" cy="137.101" r="49.199"/>
            </g>
            <g id="Face" transform="matrix(0.407441,0,0,0.449463,753.463,-25.1045)">
                <path d="M139.058,199.679C117.944,215.902 80.758,161.582 80.304,192.268C79.901,219.51 84.449,252.975 87.642,290.909L367.414,240.71C369.076,212.812 337.821,144.538 320.792,122.682C308.148,106.455 285.728,184.541 271.119,187.448C251.907,191.272 239.366,160.548 233.041,143.719C224.089,119.897 207.37,71.382 176.674,78.662C152.197,86.949 140.113,172.598 139.058,199.679Z" style="fill:rgb(0,136,126);stroke:rgb(12,0,0);stroke-width:8.86px;"/>
                <path d="M144.399,371.666C143.545,370.929 116.685,318.496 115.421,312.313C90.794,314.735 85.631,304.454 86.957,289.772C86.612,280.181 90.962,275.007 97.687,272.069C108.776,269.653 123.791,256.891 128.823,262.856C207.629,225.148 279.018,226.509 365.624,233.197L372.38,272.626L377.717,301.672C377.717,301.672 351.543,300.23 352.229,300.566C355.344,302.091 346.005,355.553 329.621,368.678C314.051,381.149 274.064,404.727 233.623,408.047C197.883,410.982 161.737,386.625 144.399,371.666Z" style="fill:rgb(217,145,100);stroke:rgb(12,0,0);stroke-width:8.86px;"/>
                <path d="M185.638,226.518C196.83,239.007 213.832,216.078 223.905,229.616C231.289,239.542 209.804,258.641 209.076,262.33C207.621,269.712 178.567,282.854 178.567,282.854C168.565,286.08 145.384,273.865 139.998,270.761C131.281,265.736 110.664,272.698 111.019,290.012C111.225,300.036 135.222,308.402 136.617,303.949C123.783,314.72 90.055,325.919 75.393,323.385C83.525,317.962 85.927,312.699 84.14,307.552C76.993,298.041 66.231,295.048 50.434,293.75C61.534,280.253 81.581,214.427 92.385,211.566C98.787,208.366 126.748,234.146 129.651,237.929C129.651,237.929 176.532,216.356 185.638,226.518Z" style="fill:rgb(2,0,0);stroke:rgb(12,0,0);stroke-width:5.06px;"/>
                <g transform="matrix(2.45434,0,0,2.22488,-70.0832,55.8544)">
                    <path d="M78.552,119.367C118.874,109.206 148.513,107.064 173.208,115.063C168.231,151.628 140.086,175.026 125.524,178.135C110,181.45 88.827,159.127 78.552,119.367Z" style="fill:rgb(105,105,105);stroke:rgb(0,136,126);stroke-width:1px;"/>
                </g>
                <g transform="matrix(1,0,0,1,20.4367,6.55633)">
                    <path d="M289.412,243.247C277.563,243.291 264.381,246.17 264.034,257.85C263.616,271.921 278.142,274.48 290.402,273.393C304.119,272.175 313.933,268.279 314.172,258.2C314.422,247.67 305.645,243.187 289.412,243.247Z" style="fill:white;stroke:white;stroke-width:1.75px;"/>
                </g>
                <g transform="matrix(1,0,0,1,25.2268,8.00377)">
                    <path d="M273.497,256.46C273.81,249.461 278.466,246.535 287.578,246.185C297.006,246.507 302.499,250.195 303.121,258.495C301.494,267.642 295.665,267.861 288.392,268.574C279.166,267.83 273.095,265.471 273.497,256.46Z" style="stroke:black;stroke-width:1.75px;"/>
                </g>
            </g>
            <g transform="matrix(1.73671,0,0,1,691.238,7.10543e-15)">
                <g id="Feet">
                    <path d="M70.215,240.224L101.464,239.89C101.69,223.451 90.282,216.671 79.086,217.693C72.044,218.336 70.118,229.499 70.215,240.224Z" style="fill:rgb(0,136,126);stroke:rgb(0,79,73);stroke-width:0.71px;"/>
                </g>
            </g>
            <g id="Hammer" transform="matrix(0.407441,0,0,0.449463,830.23,-25.1045)">
                <g transform="matrix(-2.45434,-2.63678e-16,2.63678e-16,-2.22488,250.39,739.075)">
                    <path d="M33.797,154.619L39.926,146.891L82.561,146.891L82.561,161.28L40.192,161.28L33.797,154.619Z" style="fill:rgb(98,98,98);stroke:black;stroke-width:1.69px;"/>
                </g>
                <g transform="matrix(2.45434,0,0,2.44019,-57.1098,18.9816)">
                    <rect x="61.278" y="146.044" width="8.945" height="50.419" style="fill:rgb(143,57,0);"/>
                </g>
                <g transform="matrix(2.45434,0,0,2.22488,-70.0832,55.8544)">
                    <ellipse cx="71.443" cy="177.963" rx="14.638" ry="14.841" style="fill:rgb(0,136,126);"/>
                </g>
            </g>
        </g>
    </g>
</svg>
