<?xml version="1.0" encoding="UTF-8" standalone="no"?>
<!DOCTYPE svg PUBLIC "-//W3C//DTD SVG 1.1//EN" "http://www.w3.org/Graphics/SVG/1.1/DTD/svg11.dtd">
<svg width="100%" height="100%" viewBox="0 0 257 256" version="1.1" xmlns="http://www.w3.org/2000/svg" xmlns:xlink="http://www.w3.org/1999/xlink" xml:space="preserve" xmlns:serif="http://www.serif.com/" style="fill-rule:evenodd;clip-rule:evenodd;stroke-linecap:round;stroke-linejoin:round;stroke-miterlimit:1.5;">
    <g transform="matrix(1,0,0,1,-712,0)">
        <g id="left" transform="matrix(1,0,0,1,-0.162433,0)">
            <rect x="712.162" y="0" width="256.162" height="255.349" style="fill:none;"/>
            <g transform="matrix(0.825698,0,0,0.850279,721.232,15.8168)">
                <circle cx="135.52" cy="149.396" r="24.843" style="fill:rgb(83,61,50);stroke:rgb(12,0,0);stroke-width:2.02px;"/>
            </g>
            <g transform="matrix(1,0,0,1,702.94,4.88535)">
                <path d="M116.215,141.986C125.396,136.625 134.866,136.467 144.639,141.764" style="fill:none;stroke:rgb(12,0,0);stroke-width:1.69px;"/>
            </g>
            <g id="Body" transform="matrix(0.774105,0,0,1.22149,768.442,4.92741)">
                <circle cx="74.345" cy="137.101" r="49.199" style="fill:rgb(34,34,34);"/>
            </g>
            <g id="Face" transform="matrix(0.407441,0,0,0.449463,734.717,-25.1045)">
                <path d="M181.844,279.749C183.146,266.074 207.109,220.791 301.951,239.007L328.732,250.48C333.282,261.781 347.423,278.609 349.36,290.183C350.999,299.977 366.718,311.231 360.714,315.24C356.435,318.096 343.991,314.841 337.557,315.543C333.76,315.957 321.527,327.74 322.694,349.128C325.597,402.345 275.913,366.466 235.543,361.397C161.274,352.072 178.881,310.873 181.844,279.749Z" style="fill:rgb(83,61,50);stroke:rgb(12,0,0);stroke-width:8.86px;"/>
            </g>
            <g transform="matrix(1,0,0,1,0.162433,0)">
                <path d="M830.005,101.129C828.641,101.302 827.598,103.56 826.679,106.617C828.156,103.527 826.864,101.475 823.02,100.38" style="fill:none;stroke:black;stroke-width:1.07px;"/>
            </g>
            <g transform="matrix(0.383763,0,0,0.395436,772.481,-2.36764)">
                <path d="M208.461,253.903C196.227,255.746 187.585,258.165 187.356,271.642C187.225,279.358 198.738,283.691 211.721,283.291C226.775,282.827 240.757,278.452 239.942,264.329C239.257,252.485 221.566,251.929 208.461,253.903Z" style="fill:white;stroke:white;stroke-width:1.92px;"/>
            </g>
            <g transform="matrix(0.383763,0,0,0.395436,774.46,-2.71691)">
                <path d="M213.965,257.077C206.855,256.908 202.31,258.927 201.364,269.767C202.287,279.271 205.458,279.816 212.129,279.75C220.894,279.663 224.72,279.4 226.112,269.951C225.809,260.83 223.542,257.304 213.965,257.077Z" style="stroke:black;stroke-width:1.92px;"/>
            </g>
            <g transform="matrix(0.939593,0.0613715,-0.0510455,0.681862,754.467,25.7825)">
                <path d="M125.126,93.184C125.126,92.117 124.497,91.251 123.723,91.251L99.698,91.251C98.923,91.251 98.294,92.117 98.294,93.184L98.294,97.05C98.294,98.116 98.923,98.983 99.698,98.983L123.723,98.983C124.497,98.983 125.126,98.116 125.126,97.05L125.126,93.184Z" style="fill:rgb(81,34,10);stroke:rgb(65,28,10);stroke-width:2.06px;"/>
            </g>
            <g transform="matrix(-0.198129,-0.356024,0.392743,-0.218564,744.814,162.785)">
                <path d="M153.543,227.024C163.042,236.668 125.494,254.982 144.782,277.431C151.129,284.819 132.613,288.972 122.931,303.9C109.293,324.927 97.159,319.929 90.501,329.442C81.369,342.49 93.136,357.214 64.349,344.161C46.247,335.952 34.232,342.029 13.999,330.785C-1.547,322.146 37.594,321.588 64.866,266.356C88.614,218.261 45.566,176.977 6.638,170.57C-3.76,168.859 -6.778,162.756 3.956,145.209C18.107,122.078 27.518,143.095 41.507,143.746C73.59,145.24 86.271,146.077 83.059,157.749C80.378,167.492 96.691,179.487 110.381,175.178C121.012,171.832 134.684,191.692 134.303,192.113C103.175,226.518 148.297,221.697 153.543,227.024Z" style="fill:rgb(2,0,0);stroke:rgb(12,0,0);stroke-width:5.06px;"/>
            </g>
            <g id="Fist" transform="matrix(0.352854,0.20372,-0.224732,0.389247,834.752,-58.5921)">
                <g id="knueppel" transform="matrix(2.45398,0.0380163,-0.0419372,2.22455,264.868,106.964)">
                    <path d="M40.104,32.702C24.199,33.142 15.016,51.279 15.005,69.878C14.994,89.585 21.01,103.962 27.282,120.05C29.237,134.079 29.354,163.231 38.519,163.035C52.321,162.738 49.026,137.81 52.662,120.196C58.705,104.653 65.228,88.449 65.56,69.886C65.902,50.793 57.651,32.216 40.104,32.702Z" style="fill:rgb(96,17,0);stroke:black;stroke-width:1.07px;"/>
                </g>
                <g transform="matrix(2.45434,0,0,2.22488,139.206,-83.0996)">
                    <path d="M73.661,222.481L103.672,222.567C103.898,206.127 98.913,215.749 87.702,215.741C76.54,215.733 72.815,208.178 73.661,222.481Z" style="fill:rgb(105,0,0);stroke:rgb(140,0,6);stroke-width:1px;"/>
                </g>
                <g transform="matrix(2.45434,0,0,2.22488,139.206,-63.0249)">
                    <path d="M73.661,222.481L103.672,222.567C103.718,219.225 103.677,215.418 103.72,214.954C103.767,214.457 73.999,214.861 73.731,214.903C73.523,214.935 73.7,221.637 73.661,222.481Z" style="fill:rgb(105,0,0);stroke:rgb(140,0,6);stroke-width:1px;"/>
                </g>
                <g transform="matrix(-2.45434,-2.72469e-16,3.0057e-16,-2.22488,574.855,929.646)">
                    <path d="M73.661,222.481L103.672,222.567C103.898,206.127 98.913,215.749 87.702,215.741C76.54,215.733 72.815,208.178 73.661,222.481Z" style="fill:rgb(105,0,0);stroke:rgb(140,0,6);stroke-width:1px;"/>
                </g>
            </g>
            <g transform="matrix(1.60926,1.09626e-16,6.17527e-17,1,709.624,3.55271e-14)">
                <g id="Feet">
                    <path d="M68.867,239.79L105.023,239.89C105.248,223.451 91.906,219.653 80.695,219.645C69.532,219.637 68.021,225.487 68.867,239.79Z" style="fill:rgb(105,0,0);stroke:rgb(140,0,6);stroke-width:0.75px;"/>
                </g>
            </g>
            <g transform="matrix(1,0,0,1,0.162433,0)">
                <path d="M832.546,97.443C833.48,92.167 831.231,89.427 825.534,89.872C821.095,90.473 817.476,94.483 816.285,99.144C815.203,102.924 816.333,108.403 817.288,109.696C819.556,112.768 824.157,113.455 825.359,110.063" style="fill:none;stroke:black;stroke-width:1.07px;"/>
            </g>
            <g transform="matrix(1,0,-2.22045e-16,1,0.162433,1.13687e-13)">
                <path d="M821.062,109.218C817.972,109.558 816.434,111.006 816.325,113.476C816.188,115.841 817.224,117.461 820.21,117.84C822.59,117.797 823.65,116.34 824.042,114.167C824.013,113.486 823.947,113.442 823.786,112.822" style="fill:none;stroke:rgb(167,143,0);stroke-width:1.07px;"/>
            </g>
        </g>
    </g>
</svg>
