<?xml version="1.0" encoding="UTF-8" standalone="no"?>
<!DOCTYPE svg PUBLIC "-//W3C//DTD SVG 1.1//EN" "http://www.w3.org/Graphics/SVG/1.1/DTD/svg11.dtd">
<svg width="100%" height="100%" viewBox="0 0 257 256" version="1.1" xmlns="http://www.w3.org/2000/svg" xmlns:xlink="http://www.w3.org/1999/xlink" xml:space="preserve" xmlns:serif="http://www.serif.com/" style="fill-rule:evenodd;clip-rule:evenodd;stroke-linecap:round;stroke-linejoin:round;stroke-miterlimit:1.5;">
    <g transform="matrix(1,0,0,1,-356,0)">
        <g id="back" transform="matrix(1,0,0,1,-0.162433,0)">
            <rect x="356.162" y="0" width="256.162" height="255.349" style="fill:none;"/>
            <g id="Fist" transform="matrix(0.395381,0.098399,-0.108548,0.436159,426.968,-54.6046)">
                <g id="knueppel" transform="matrix(2.45398,0.0380163,-0.0419372,2.22455,264.868,106.964)">
                    <path d="M40.104,32.702C24.199,33.142 15.016,51.279 15.005,69.878C14.994,89.585 21.01,103.962 27.282,120.05C29.237,134.079 29.354,163.231 38.519,163.035C52.321,162.738 49.026,137.81 52.662,120.196C58.705,104.653 65.228,88.449 65.56,69.886C65.902,50.793 57.651,32.216 40.104,32.702Z" style="fill:rgb(96,17,0);stroke:black;stroke-width:1.07px;"/>
                </g>
                <g transform="matrix(2.45434,0,0,2.22488,139.206,-83.0996)">
                    <path d="M73.661,222.481L103.672,222.567C103.898,206.127 98.913,215.749 87.702,215.741C76.54,215.733 72.815,208.178 73.661,222.481Z" style="fill:rgb(105,0,0);stroke:rgb(140,0,6);stroke-width:1px;"/>
                </g>
                <g transform="matrix(2.45434,0,0,2.22488,139.206,-63.0249)">
                    <path d="M73.661,222.481L103.672,222.567C103.718,219.225 103.677,215.418 103.72,214.954C103.767,214.457 73.999,214.861 73.731,214.903C73.523,214.935 73.7,221.637 73.661,222.481Z" style="fill:rgb(105,0,0);stroke:rgb(140,0,6);stroke-width:1px;"/>
                </g>
                <g transform="matrix(-2.45434,-2.72469e-16,3.0057e-16,-2.22488,574.855,929.646)">
                    <path d="M73.661,222.481L103.672,222.567C103.898,206.127 98.913,215.749 87.702,215.741C76.54,215.733 72.815,208.178 73.661,222.481Z" style="fill:rgb(105,0,0);stroke:rgb(140,0,6);stroke-width:1px;"/>
                </g>
            </g>
            <g id="Face" transform="matrix(0.407441,0,0,0.449463,378.717,-25.1045)">
                <path d="M157.209,348.675C156.281,348.015 116.685,318.496 115.421,312.313C90.794,314.735 85.631,304.454 86.957,289.772C86.612,280.181 90.962,275.007 97.687,272.069C108.776,269.653 117.404,270.642 122.436,276.606C132.178,271.945 138.512,256.375 156.626,251.078C201.669,237.905 225.354,235.676 301.951,239.007L351.055,258.069C360.489,254.508 373.933,252.681 375.87,264.254C377.509,274.049 376.136,289.414 370.131,293.422C365.852,296.278 358.641,297.134 352.207,297.836C348.41,298.25 338.032,332.842 322.694,349.128C309.203,363.453 271.37,383.767 231.009,379.737C193.763,376.017 182.399,366.596 157.209,348.675Z" style="fill:rgb(83,61,50);stroke:rgb(12,0,0);stroke-width:8.86px;"/>
            </g>
            <g id="Feet" transform="matrix(0.407441,0,0,0.449463,378.717,-25.1045)">
                <g transform="matrix(2.45434,0,0,2.22488,-70.0832,55.8544)">
                    <path d="M70.215,240.224L105.023,239.89C105.248,223.451 98.913,215.749 87.702,215.741C76.54,215.733 69.369,225.921 70.215,240.224Z" style="fill:rgb(105,0,0);stroke:rgb(140,0,6);stroke-width:1px;"/>
                </g>
                <g transform="matrix(2.45434,0,0,2.22488,95.4653,55.8544)">
                    <path d="M70.215,240.224L105.023,239.89C105.248,223.451 98.913,215.749 87.702,215.741C76.54,215.733 69.369,225.921 70.215,240.224Z" style="fill:rgb(105,0,0);stroke:rgb(140,0,6);stroke-width:1px;"/>
                </g>
            </g>
            <g transform="matrix(0.825698,0,0,0.850279,365.232,15.8168)">
                <circle cx="135.52" cy="149.396" r="24.843" style="fill:rgb(83,61,50);stroke:rgb(12,0,0);stroke-width:2.02px;"/>
            </g>
            <g transform="matrix(1,0,0,1,346.94,4.88535)">
                <path d="M116.215,141.986C125.396,136.625 134.866,136.467 144.639,141.764" style="fill:none;stroke:rgb(12,0,0);stroke-width:1.69px;"/>
            </g>
            <g transform="matrix(0.623574,0,0,0.623574,393.922,63.7375)">
                <circle cx="49.327" cy="160.797" r="22.813" style="fill:rgb(223,182,0);"/>
                <clipPath id="_clip1">
                    <circle cx="49.327" cy="160.797" r="22.813"/>
                </clipPath>
                <g clip-path="url(#_clip1)">
                    <g transform="matrix(1.60366,0,0,1.60366,-631.455,-104.439)">
                        <ellipse cx="424.402" cy="165.689" rx="7.113" ry="6.766" style="fill:rgb(140,0,6);"/>
                    </g>
                </g>
                <circle cx="49.327" cy="160.797" r="22.813" style="fill:none;stroke:black;stroke-width:6.77px;"/>
            </g>
            <g id="Body" transform="matrix(1,0,0,1.22149,398.63,4.92741)">
                <circle cx="74.345" cy="137.101" r="49.199" style="fill:rgb(34,34,34);"/>
            </g>
            <g transform="matrix(-0.198129,-0.356024,0.392743,-0.218564,388.814,162.785)">
                <path d="M148.585,224.521C156.753,243.145 198.045,249.736 202.3,252.01C212.205,257.303 164.762,269.531 184.05,291.98C190.397,299.368 150.36,296.473 150.715,313.787C150.921,323.811 108.391,315.867 102.999,325.499C85.545,321.57 89.876,328.995 75.215,326.461C55.333,323.023 56.373,323.943 36.14,312.7C20.594,304.061 12.079,302.701 -4.611,285.258C-22.937,266.105 -35.274,264.575 -33.968,248.789C-30.997,212.875 -12.133,182.369 7.534,173.164C21.139,166.796 49.059,171.993 63.029,173.469C78.321,175.083 113.396,191.588 116.299,195.371C119.497,199.539 143.705,213.394 148.585,224.521Z" style="fill:rgb(2,0,0);stroke:rgb(12,0,0);stroke-width:5.06px;"/>
            </g>
        </g>
    </g>
</svg>
