<?xml version="1.0" encoding="UTF-8" standalone="no"?>
<!DOCTYPE svg PUBLIC "-//W3C//DTD SVG 1.1//EN" "http://www.w3.org/Graphics/SVG/1.1/DTD/svg11.dtd">
<svg width="100%" height="100%" viewBox="0 0 257 256" version="1.1" xmlns="http://www.w3.org/2000/svg" xmlns:xlink="http://www.w3.org/1999/xlink" xml:space="preserve" xmlns:serif="http://www.serif.com/" style="fill-rule:evenodd;clip-rule:evenodd;stroke-linecap:round;stroke-linejoin:round;stroke-miterlimit:1.5;">
    <g id="front" transform="matrix(1,0,0,1,0.299827,-0.143355)">
        <rect x="-0.3" y="0.143" width="256.162" height="255.349" style="fill:none;"/>
        <g id="Ebene1" transform="matrix(0.407441,0,0,0.449463,29.2549,-24.9611)">
            <g id="Body" transform="matrix(2.45434,0,0,2.71766,53.7816,66.8172)">
                <circle cx="74.345" cy="137.101" r="49.199" style="fill:rgb(34,34,34);"/>
            </g>
            <g id="Face" transform="matrix(1,0,0,1,4.90869,0)">
                <g transform="matrix(-0.486277,-0.792109,0.963926,-0.486277,24.7815,418.03)">
                    <path d="M158.504,232.175C154.1,250.641 198.045,249.736 202.3,252.01C212.205,257.303 181.637,267.442 189.109,274.213C196.415,280.833 160.46,284.783 160.815,302.097C161.021,312.12 122.05,301.555 116.658,311.187C103.824,321.957 89.876,328.995 75.215,326.461C55.333,323.023 48.687,318.96 44.493,313.38C37.346,303.869 31.272,301.107 39.719,290.836C50.819,277.338 84.132,202.144 94.935,199.283C101.338,196.083 124.383,208.616 127.286,212.399C130.484,216.566 161.295,220.471 158.504,232.175Z" style="fill:rgb(2,0,0);stroke:rgb(12,0,0);stroke-width:5.06px;"/>
                </g>
                <path d="M157.209,348.675C156.281,348.015 116.685,318.496 115.421,312.313C90.794,314.735 85.631,304.454 86.957,289.772C86.612,280.181 90.962,275.007 97.687,272.069C108.776,269.653 117.404,270.642 122.436,276.606C132.178,271.945 138.512,256.375 156.626,251.078C201.669,237.905 225.354,235.676 301.951,239.007L351.055,258.069C360.489,254.508 373.933,252.681 375.87,264.254C377.509,274.049 376.136,289.414 370.131,293.422C365.852,296.278 358.641,297.134 352.207,297.836C348.41,298.25 338.032,332.842 322.694,349.128C309.203,363.453 271.37,383.767 231.009,379.737C193.763,376.017 182.399,366.596 157.209,348.675Z" style="fill:rgb(83,61,50);stroke:rgb(12,0,0);stroke-width:8.86px;"/>
                <g transform="matrix(1,0,0,1,-17.3707,16.1088)">
                    <path d="M208.461,253.903C196.227,255.746 187.585,258.165 187.356,271.642C187.225,279.358 198.738,283.691 211.721,283.291C226.775,282.827 240.757,278.452 239.942,264.329C239.257,252.485 221.566,251.929 208.461,253.903Z" style="fill:white;stroke:white;stroke-width:1.75px;"/>
                </g>
                <g transform="matrix(1,0,0,1,-17.3707,16.1088)">
                    <path d="M213.965,257.077C206.855,256.908 202.31,258.927 201.364,269.767C202.287,279.271 205.458,279.816 212.129,279.75C220.894,279.663 224.72,279.4 226.112,269.951C225.809,260.83 223.542,257.304 213.965,257.077Z" style="stroke:black;stroke-width:1.75px;"/>
                </g>
                <g transform="matrix(1,0,0,1,-2.4508,28.0277)">
                    <path d="M289.412,243.247C277.563,243.291 264.381,246.17 264.034,257.85C263.616,271.921 278.142,274.48 290.402,273.393C304.119,272.175 313.933,268.279 314.172,258.2C314.422,247.67 305.645,243.187 289.412,243.247Z" style="fill:white;stroke:white;stroke-width:1.75px;"/>
                </g>
                <g transform="matrix(1,0,0,1,-2.4508,28.0277)">
                    <path d="M273.497,256.46C273.81,249.461 278.466,246.535 287.578,246.185C297.006,246.507 302.499,250.195 303.121,258.495C301.494,267.642 295.665,267.861 288.392,268.574C279.166,267.83 273.095,265.471 273.497,256.46Z" style="stroke:black;stroke-width:1.75px;"/>
                </g>
                <g transform="matrix(2.44836,0.1552,-0.171206,2.21946,-60.6126,39.3321)">
                    <path d="M125.126,93.184C125.126,92.117 124.26,91.251 123.193,91.251L100.227,91.251C99.16,91.251 98.294,92.117 98.294,93.184L98.294,97.05C98.294,98.116 99.16,98.983 100.227,98.983L123.193,98.983C124.26,98.983 125.126,98.116 125.126,97.05L125.126,93.184Z" style="fill:rgb(81,34,10);stroke:rgb(65,28,10);stroke-width:1.69px;"/>
                </g>
                <g transform="matrix(2.44836,-0.1552,0.171206,2.21946,-3.89891,75.7903)">
                    <path d="M125.126,93.184C125.126,92.117 124.26,91.251 123.193,91.251L100.227,91.251C99.16,91.251 98.294,92.117 98.294,93.184L98.294,97.05C98.294,98.116 99.16,98.983 100.227,98.983L123.193,98.983C124.26,98.983 125.126,98.116 125.126,97.05L125.126,93.184Z" style="fill:rgb(81,34,10);stroke:rgb(65,28,10);stroke-width:1.69px;"/>
                </g>
            </g>
            <g id="Feet" transform="matrix(1,0,0,1,4.90869,0)">
                <g transform="matrix(2.45434,0,0,2.22488,-70.0832,55.8544)">
                    <path d="M70.215,240.224L105.023,239.89C105.248,223.451 98.913,215.749 87.702,215.741C76.54,215.733 69.369,225.921 70.215,240.224Z" style="fill:rgb(105,0,0);stroke:rgb(140,0,6);stroke-width:1px;"/>
                </g>
                <g transform="matrix(2.45434,0,0,2.22488,95.4653,55.8544)">
                    <path d="M70.215,240.224L105.023,239.89C105.248,223.451 98.913,215.749 87.702,215.741C76.54,215.733 69.369,225.921 70.215,240.224Z" style="fill:rgb(105,0,0);stroke:rgb(140,0,6);stroke-width:1px;"/>
                </g>
            </g>
            <g transform="matrix(2.02655,0,0,1.89177,-28.1881,91.0448)">
                <circle cx="135.52" cy="149.396" r="24.843" style="fill:rgb(83,61,50);stroke:rgb(12,0,0);stroke-width:2.02px;"/>
            </g>
            <g transform="matrix(2.45434,0,0,2.22488,-73.0825,66.7237)">
                <path d="M116.215,141.986C125.396,136.625 134.866,136.467 144.639,141.764" style="fill:none;stroke:rgb(12,0,0);stroke-width:1.69px;"/>
            </g>
            <g transform="matrix(2.45434,0,0,2.22488,-72.5375,55.8544)">
                <path d="M135.381,109.424C135.381,107.969 134.199,106.788 132.744,106.788L127.47,106.788C126.015,106.788 124.833,107.969 124.833,109.424L124.833,132.741C124.833,134.196 126.015,135.378 127.47,135.378L132.744,135.378C134.199,135.378 135.381,134.196 135.381,132.741L135.381,109.424Z" style="fill:rgb(83,61,50);stroke:rgb(12,0,0);stroke-width:1.69px;"/>
            </g>
            <g id="Fist" transform="matrix(0.9704,0.218925,-0.266413,0.9704,123.334,-65.6341)">
                <g id="knueppel" transform="matrix(2.45398,0.0380163,-0.0419372,2.22455,264.868,106.964)">
                    <path d="M40.104,32.702C24.199,33.142 15.016,51.279 15.005,69.878C14.994,89.585 21.01,103.962 27.282,120.05C29.237,134.079 29.354,163.231 38.519,163.035C52.321,162.738 49.026,137.81 52.662,120.196C58.705,104.653 65.228,88.449 65.56,69.886C65.902,50.793 57.651,32.216 40.104,32.702Z" style="fill:rgb(96,17,0);stroke:black;stroke-width:1.07px;"/>
                </g>
                <g transform="matrix(2.45434,0,0,2.22488,139.206,-83.0996)">
                    <path d="M73.661,222.481L103.672,222.567C103.898,206.127 98.913,215.749 87.702,215.741C76.54,215.733 72.815,208.178 73.661,222.481Z" style="fill:rgb(105,0,0);stroke:rgb(140,0,6);stroke-width:1px;"/>
                </g>
                <g transform="matrix(2.45434,0,0,2.22488,139.206,-63.0249)">
                    <path d="M73.661,222.481L103.672,222.567C103.718,219.225 103.677,215.418 103.72,214.954C103.767,214.457 73.999,214.861 73.731,214.903C73.523,214.935 73.7,221.637 73.661,222.481Z" style="fill:rgb(105,0,0);stroke:rgb(140,0,6);stroke-width:1px;"/>
                </g>
                <g transform="matrix(-2.45434,-2.72469e-16,3.0057e-16,-2.22488,574.855,929.646)">
                    <path d="M73.661,222.481L103.672,222.567C103.898,206.127 98.913,215.749 87.702,215.741C76.54,215.733 72.815,208.178 73.661,222.481Z" style="fill:rgb(105,0,0);stroke:rgb(140,0,6);stroke-width:1px;"/>
                </g>
            </g>
            <g transform="matrix(1.53046,0,0,1.38738,42.2254,197.662)">
                <circle cx="49.327" cy="160.797" r="22.813" style="fill:rgb(223,182,0);stroke:black;stroke-width:6.77px;"/>
            </g>
        </g>
    </g>
</svg>
