<?xml version="1.0" encoding="UTF-8" standalone="no"?>
<!DOCTYPE svg PUBLIC "-//W3C//DTD SVG 1.1//EN" "http://www.w3.org/Graphics/SVG/1.1/DTD/svg11.dtd">
<svg width="100%" height="100%" viewBox="0 0 257 256" version="1.1" xmlns="http://www.w3.org/2000/svg" xmlns:xlink="http://www.w3.org/1999/xlink" xml:space="preserve" xmlns:serif="http://www.serif.com/" style="fill-rule:evenodd;clip-rule:evenodd;stroke-linecap:round;stroke-linejoin:round;stroke-miterlimit:1.5;">
    <g id="_100-" serif:id="100%" transform="matrix(1,0,0,1,0.299827,-0.143355)">
        <rect x="-0.3" y="0.143" width="256.162" height="255.349" style="fill:none;"/>
        <g transform="matrix(0.141443,0,0,0.141117,-16.8429,-7.16606)">
            <rect x="524.875" y="351.656" width="942.125" height="612.344" style="fill:white;stroke:black;stroke-width:18.63px;"/>
        </g>
        <g transform="matrix(0.124075,0,0,0.116779,0.454989,8.84423)">
            <rect x="524.875" y="351.656" width="942.125" height="612.344" style="fill:none;stroke:black;stroke-width:21.84px;"/>
        </g>
        <g transform="matrix(0.141443,0,0,0.141117,-16.8429,-7.16606)">
            <path d="M585.094,722.297C584.38,720.036 595.818,723.131 597,723C606.675,721.925 616.261,722.609 626,722C651.759,720.39 678.188,718 704,718C796.949,718 896.103,738.018 988,721C1006.37,717.599 1028.31,715.664 1047,718C1055.31,719.039 1102,739.107 1102,726" style="fill:none;stroke:black;stroke-width:18.63px;"/>
        </g>
        <g transform="matrix(0.141443,0,0,0.141117,-16.8429,-7.16606)">
            <path d="M1028.47,835.617C1024.95,838.489 1033.79,828.21 1037,825C1042.35,819.653 1049.31,814.857 1054,809C1068.43,790.958 1077,767.496 1090,748C1129.92,688.124 1165.24,625.636 1205,566C1219.77,543.849 1239.86,514.607 1262,498C1266.16,494.876 1274,488 1274,488C1274,488 1277.68,495.525 1280,499C1288.98,512.471 1292.09,588.042 1306,595C1310.46,597.232 1335.07,554.035 1341,557C1349.12,561.062 1350.3,623.338 1351,630C1355.65,674.162 1356.61,715.188 1366,759C1371.65,785.378 1392,805.136 1392,830" style="fill:none;stroke:black;stroke-width:18.63px;"/>
        </g>
        <g transform="matrix(0.141443,0,0,0.141117,-16.8429,-7.16606)">
            <path d="M1214.91,544.992C1215.83,545.069 1218.2,553.2 1220,555C1223.26,558.257 1229.13,550.401 1231,549C1233.37,547.224 1238.99,554.502 1242,554C1245.76,553.374 1248.32,548.053 1252,547C1256.54,545.704 1265.62,559.461 1282,554" style="fill:none;stroke:black;stroke-width:18.63px;"/>
        </g>
        <g transform="matrix(0.141443,0,0,0.141117,-16.8429,-7.16606)">
            <path d="M1314.03,591.445C1313.06,577.606 1331.41,588 1341,588" style="fill:none;stroke:black;stroke-width:18.63px;"/>
        </g>
        <g transform="matrix(0.141443,0,0,0.141117,-16.8429,-7.16606)">
            <path d="M844.406,486.75C842.427,487.968 840.306,483.712 838,484C818.267,486.467 791.19,508.262 788,529C783.944,555.366 825.395,583.763 850,569C912.343,531.594 878.252,460.705 833,482" style="fill:none;stroke:black;stroke-width:18.63px;"/>
        </g>
        <g transform="matrix(0.202519,0,0,0.202519,-84.5304,-19.4772)">
            <path d="M936.25,303.773C935.637,306.224 1012.68,220.658 1038,208C1047.77,203.117 1124.75,302.279 1124.75,304.977" style="fill:none;stroke:black;stroke-width:12.99px;"/>
        </g>
    </g>
</svg>
