<?xml version="1.0" encoding="UTF-8" standalone="no"?>
<!DOCTYPE svg PUBLIC "-//W3C//DTD SVG 1.1//EN" "http://www.w3.org/Graphics/SVG/1.1/DTD/svg11.dtd">
<svg width="100%" height="100%" viewBox="0 0 257 256" version="1.1" xmlns="http://www.w3.org/2000/svg" xmlns:xlink="http://www.w3.org/1999/xlink" xml:space="preserve" xmlns:serif="http://www.serif.com/" style="fill-rule:evenodd;clip-rule:evenodd;stroke-linecap:round;stroke-linejoin:round;stroke-miterlimit:1.5;">
    <g transform="matrix(1,0,0,1,-356,0)">
        <g id="_50-" serif:id="50%" transform="matrix(1,0,0,1,-0.162433,0)">
            <rect x="356.162" y="0" width="256.162" height="255.349" style="fill:none;"/>
            <g transform="matrix(0.101143,0.0247813,-0.023537,0.0943343,394.356,-12.0257)">
                <path d="M1467,351.656L524.875,351.656L547.303,937.774C604.554,945.009 662.463,925.835 721.868,916.683C824.235,900.912 878.436,913.257 992.007,945.83C1072.37,968.877 1189.93,909.244 1278.67,904.146C1365.91,899.135 1511.45,957.797 1586.42,950.633C1586.42,950.633 1530.58,776.991 1530.58,684.266C1530.58,582.209 1467,351.656 1467,351.656Z" style="fill:white;stroke:black;stroke-width:26.18px;"/>
            </g>
            <g transform="matrix(-0.0193078,0.101458,-0.0936478,-0.0175007,624.411,80.7498)">
                <path d="M1540.7,1024.9L1536.01,292.26L1470.88,358.32L1471.21,966.107L1540.7,1024.9Z" style="fill:white;stroke:black;stroke-width:26.44px;"/>
            </g>
            <g transform="matrix(0.104188,0,0,0.0971749,375.134,128.943)">
                <path d="M1471.21,966.107L528.52,956.529L467.849,1021L1538.82,1025.56L1471.21,966.107Z" style="fill:white;stroke:black;stroke-width:26.12px;"/>
            </g>
            <g transform="matrix(0.115301,0.0282503,-0.0284424,0.113995,383.482,-28.4137)">
                <path d="M585.094,722.297C584.38,720.036 595.818,723.131 597,723C606.675,721.925 616.261,722.609 626,722C651.759,720.39 678.188,718 704,718C796.949,718 896.103,738.018 988,721C1006.37,717.599 1028.31,715.664 1047,718C1055.31,719.039 1102,739.107 1102,726" style="fill:none;stroke:black;stroke-width:22.33px;"/>
            </g>
            <g transform="matrix(0.115301,0.0282503,-0.0284424,0.113995,383.482,-28.4137)">
                <path d="M1028.47,835.617C1024.95,838.489 1033.79,828.21 1037,825C1042.35,819.653 1049.31,814.857 1054,809C1068.43,790.958 1077,767.496 1090,748C1129.92,688.124 1165.24,625.636 1205,566C1219.77,543.849 1239.86,514.607 1262,498C1266.16,494.876 1274,488 1274,488C1274,488 1277.68,495.525 1280,499C1288.98,512.471 1292.09,588.042 1306,595C1310.46,597.232 1335.07,554.035 1341,557C1349.12,561.062 1350.3,623.338 1351,630C1355.65,674.162 1356.61,715.188 1366,759C1371.65,785.378 1392,805.136 1392,830" style="fill:none;stroke:black;stroke-width:22.33px;"/>
            </g>
            <g transform="matrix(0.115301,0.0282503,-0.0284424,0.113995,383.482,-28.4137)">
                <path d="M1214.91,544.992C1215.83,545.069 1218.2,553.2 1220,555C1223.26,558.257 1229.13,550.401 1231,549C1233.37,547.224 1238.99,554.502 1242,554C1245.76,553.374 1248.32,548.053 1252,547C1256.54,545.704 1265.62,559.461 1282,554" style="fill:none;stroke:black;stroke-width:22.33px;"/>
            </g>
            <g transform="matrix(0.115301,0.0282503,-0.0284424,0.113995,383.482,-28.4137)">
                <path d="M1314.03,591.445C1313.06,577.606 1331.41,588 1341,588" style="fill:none;stroke:black;stroke-width:22.33px;"/>
            </g>
            <g transform="matrix(0.115301,0.0282503,-0.0284424,0.113995,383.482,-28.4137)">
                <path d="M844.406,486.75C842.427,487.968 840.306,483.712 838,484C818.267,486.467 791.19,508.262 788,529C783.944,555.366 825.395,583.763 850,569C912.343,531.594 878.252,460.705 833,482" style="fill:none;stroke:black;stroke-width:22.33px;"/>
            </g>
            <g transform="matrix(0.115301,0.0282503,-0.0284424,0.113995,383.482,-28.4137)">
                <path d="M1467,351.656L524.875,351.656L524.875,964L579.396,906.197L580.894,401.986L1407.84,402.13L1467,351.656Z" style="fill:white;stroke:black;stroke-width:22.33px;"/>
            </g>
            <g transform="matrix(0.165088,0.0404488,-0.040818,0.163595,330.786,-51.8778)">
                <path d="M936.25,303.773C935.637,306.224 953.653,240.923 970.75,217.023C977.103,208.143 1124.75,302.279 1124.75,304.977" style="fill:none;stroke:black;stroke-width:15.58px;"/>
            </g>
        </g>
    </g>
</svg>
