<?xml version="1.0" encoding="UTF-8" standalone="no"?>
<!DOCTYPE svg PUBLIC "-//W3C//DTD SVG 1.1//EN" "http://www.w3.org/Graphics/SVG/1.1/DTD/svg11.dtd">
<svg width="100%" height="100%" viewBox="0 0 257 256" version="1.1" xmlns="http://www.w3.org/2000/svg" xmlns:xlink="http://www.w3.org/1999/xlink" xml:space="preserve" xmlns:serif="http://www.serif.com/" style="fill-rule:evenodd;clip-rule:evenodd;stroke-linecap:round;stroke-linejoin:round;stroke-miterlimit:1.5;">
    <g transform="matrix(1,0,0,1,-712,0)">
        <g id="_0-" serif:id="0%" transform="matrix(1,0,0,1,-0.162433,0)">
            <rect x="712.162" y="0" width="256.162" height="255.349" style="fill:none;"/>
            <g transform="matrix(-0.0304541,0.161489,-0.14771,-0.0278557,1048.69,-21.9612)">
                <path d="M1540.7,1024.9L1536.01,292.26L1470.88,358.32L1471.21,966.107L1540.7,1024.9Z" style="fill:white;stroke:black;stroke-width:16.71px;"/>
            </g>
            <g transform="matrix(0.164336,0,0,0.154672,655.506,54.7477)">
                <path d="M1471.21,966.107L528.52,956.529L467.849,1021L1538.82,1025.56L1471.21,966.107Z" style="fill:none;stroke:black;stroke-width:16.49px;"/>
            </g>
            <g transform="matrix(0.268233,0,0,-0.115647,549.591,277.28)">
                <g transform="matrix(0.678004,0.167637,-0.16725,0.676441,453.856,-94.0721)">
                    <path d="M1467,351.656L524.875,351.656L524.875,964L579.396,906.197L580.894,401.986L1407.84,402.13L1467,351.656Z" style="fill:white;stroke:black;stroke-width:22.12px;"/>
                </g>
                <g transform="matrix(0.594749,0.147052,-0.138405,0.559777,517.797,3.17398)">
                    <path d="M1467,351.656L524.875,351.656L547.303,937.774C604.554,945.009 662.463,925.835 721.868,916.683C824.235,900.912 878.436,913.257 992.007,945.83C1072.37,968.877 1230.79,916.165 1319.53,911.067C1406.77,906.056 1469.39,943.906 1544.36,936.742C1544.36,936.742 1484.31,769.411 1484.31,676.686C1484.31,574.629 1467,351.656 1467,351.656Z" style="fill:white;stroke:black;stroke-width:25.28px;"/>
                </g>
                <g transform="matrix(0.970767,0.240022,-0.240022,0.970767,143.988,-233.308)">
                    <path d="M936.25,303.773C935.637,306.224 938.997,213.132 962.04,256.658C986.835,303.494 998.109,254.692 1029.21,272.897C1072.18,298.042 1124.75,303.412 1124.75,304.977" style="fill:none;stroke:black;stroke-width:15.45px;"/>
                </g>
            </g>
        </g>
    </g>
</svg>
