<?xml version="1.0" encoding="UTF-8" standalone="no"?>
<!DOCTYPE svg PUBLIC "-//W3C//DTD SVG 1.1//EN" "http://www.w3.org/Graphics/SVG/1.1/DTD/svg11.dtd">
<svg width="100%" height="100%" viewBox="0 0 257 256" version="1.1" xmlns="http://www.w3.org/2000/svg" xmlns:xlink="http://www.w3.org/1999/xlink" xml:space="preserve" xmlns:serif="http://www.serif.com/" style="fill-rule:evenodd;clip-rule:evenodd;stroke-linecap:round;stroke-linejoin:round;stroke-miterlimit:1.5;">
    <g id="_100-" serif:id="100%" transform="matrix(1,0,0,1,0.299827,-0.143355)">
        <rect x="-0.3" y="0.143" width="256.162" height="255.349" style="fill:none;"/>
        <g transform="matrix(0.323128,0,0,0.323128,-178.827,-122.336)">
            <path d="M1027.31,546.344C994.646,536.677 910.385,541.637 907,542C891.48,543.663 768.073,547.971 784,589C788.064,599.47 843.132,618.83 854,621C915.251,633.228 988.096,637.814 1049,623C1067.33,618.542 1087.72,611.459 1103,600C1125.58,583.065 1056.97,555.119 1027.31,546.344Z" style="fill:none;stroke:black;stroke-width:8.05px;"/>
        </g>
        <g transform="matrix(0.323128,0,0,0.323128,-178.827,-122.336)">
            <path d="M784.281,584.25C784.281,584.25 734.985,906.373 756.25,992.469C767.672,1038.71 780.602,1063.58 806.441,1084.63C832.28,1105.67 858.048,1122.04 911.284,1118.74C979.73,1114.5 963.468,1117.42 1025.3,1097.25C1103.4,1071.76 1103.57,953.265 1112.19,928.148C1129.15,878.699 1108.09,601.398 1108.09,601.398" style="fill:none;stroke:black;stroke-width:8.05px;"/>
        </g>
        <g transform="matrix(0.323128,0,0,0.323128,-178.827,-122.336)">
            <path d="M883,867C882.503,865.65 885.931,873.237 888,874C893.818,876.144 905.33,881.333 910,882C934.006,885.429 961.196,881.804 977,866C978.843,864.157 975,858.696 975,857C975,834.339 890.107,838.571 883,867" style="fill:white;stroke:black;stroke-width:8.05px;"/>
        </g>
        <g transform="matrix(0.323128,0,0,0.323128,-173.576,-118.309)">
            <path d="M924.031,855.375C923.988,854.85 910.263,852.527 909,850C900.869,833.737 893.852,796.445 900,778C902.299,771.104 929.524,707.384 929.524,707.384C929.524,707.384 956.993,751.927 952.125,782.375C947.754,809.714 940.93,829.14 930,851L924.031,855.375Z" style="fill:rgb(255,195,0);stroke:black;stroke-width:8.05px;"/>
        </g>
        <g transform="matrix(1,0,0,1,-0.299827,0.143355)">
            <path d="M72.584,216.76C74.641,209.636 93.392,203.806 122.219,202.259C143.56,202.36 158.322,209.27 169.624,218.293C162.204,230.272 145.488,237.128 119.849,239.068C97.911,240.712 82.624,232.59 72.584,216.76Z" style="fill:white;stroke:black;stroke-width:2.6px;"/>
        </g>
        <g transform="matrix(1,0,0,1,-0.299827,0.143355)">
            <path d="M107.58,157.922L108.835,219.13C117.432,226.901 126.03,226.603 134.628,220.245L138.114,157.086C126.106,164.135 115.87,164.629 107.58,157.922Z" style="fill:white;stroke:black;stroke-width:2.6px;"/>
        </g>
    </g>
</svg>
