<?xml version="1.0" encoding="UTF-8" standalone="no"?>
<!DOCTYPE svg PUBLIC "-//W3C//DTD SVG 1.1//EN" "http://www.w3.org/Graphics/SVG/1.1/DTD/svg11.dtd">
<svg width="100%" height="100%" viewBox="0 0 257 256" version="1.1" xmlns="http://www.w3.org/2000/svg" xmlns:xlink="http://www.w3.org/1999/xlink" xml:space="preserve" xmlns:serif="http://www.serif.com/" style="fill-rule:evenodd;clip-rule:evenodd;stroke-linecap:round;stroke-linejoin:round;stroke-miterlimit:1.5;">
    <g transform="matrix(1,0,0,1,-356,0)">
        <g id="_50-" serif:id="50%" transform="matrix(1,0,0,1,-0.162433,0)">
            <rect x="356.162" y="0" width="256.162" height="255.349" style="fill:none;"/>
            <g transform="matrix(0.318647,0,0,0.318647,139.708,-126.123)">
                <path d="M1059.06,558.82C1034.14,556.365 910.385,541.637 907,542C891.48,543.663 768.073,547.971 784,589C788.064,599.47 843.132,618.83 854,621C905.256,631.233 964.632,636.114 1018.34,628.753" style="fill:none;stroke:black;stroke-width:8.16px;"/>
            </g>
            <g transform="matrix(0.0747894,-0.309746,0.309746,0.0747894,231.57,560.899)">
                <g transform="matrix(1,-3.48116e-18,2.6923e-18,0.268294,222.787,403.972)">
                    <path d="M1018.34,628.753C1028.81,627.318 1039.06,625.417 1049,623C1067.33,618.542 1087.72,611.459 1103,600C1119.63,587.531 1086.81,569.091 1056.51,556.73C1045.66,552.304 1037.59,547.357 1027.31,546.344" style="fill:none;stroke:black;stroke-width:11.15px;"/>
                </g>
                <g transform="matrix(1,0,0,1,220.438,-25.25)">
                    <path d="M1117.5,891.437C1123.22,800.596 1108.09,601.398 1108.09,601.398" style="fill:none;stroke:black;stroke-width:8.16px;"/>
                </g>
                <g transform="matrix(1,-8.67362e-19,2.60209e-18,1.21585,220.438,-216.709)">
                    <path d="M1019.97,638.273C1020.98,629.409 1000.19,648.286 1006,657C1011.72,665.574 1025.92,657.831 1031,668C1036.86,679.713 1021.78,696.709 1028,705C1035.79,715.392 1030.89,716.678 1035,729C1035.57,730.716 1038.07,729.626 1039,730C1072.25,743.299 1056.54,763.54 1066,773C1067.67,774.675 1072.54,771.073 1074,774C1081.42,788.844 1058.32,839.756 1072,858C1077.67,865.563 1094.98,854.976 1101,861C1106.78,866.781 1101.57,887 1108,887" style="fill:none;stroke:black;stroke-width:7.33px;"/>
                </g>
                <g transform="matrix(1,0,0,1,220.438,-25.25)">
                    <path d="M1053.53,561.187C1053.69,561.125 1053.84,561.062 1054,561" style="fill:none;stroke:black;stroke-width:8.16px;"/>
                </g>
                <g transform="matrix(1.02988,-1.59669e-18,8.93277e-19,0.932685,187.482,33.5831)">
                    <path d="M1050.91,567.562C1051.26,569.233 1056,565.292 1056,567C1056,568.144 1049.75,570.498 1049,572C1047.1,575.796 1047.74,582.767 1046,588C1044.01,593.977 1058.08,592.153 1059,594C1063.32,602.641 1053.64,619.81 1052,628C1050.67,634.666 1058,637.02 1059,643C1060.13,649.781 1056.47,659.674 1059,666C1060.73,670.328 1068.54,668.617 1070,673C1071.97,678.922 1065.49,681.94 1067,688C1072.27,709.095 1075.92,731.473 1079,753C1080.44,763.103 1074.67,776.014 1078,786C1079.5,790.498 1089.19,793.249 1092,797C1100.09,807.782 1096.32,870.662 1103,874" style="fill:none;stroke:black;stroke-width:8.3px;"/>
                </g>
            </g>
            <g transform="matrix(0.318647,0,0,0.318647,139.708,-126.123)">
                <path d="M784.281,584.25C784.281,584.25 734.985,906.373 756.25,992.469C767.672,1038.71 780.602,1063.58 806.441,1084.63C832.28,1105.67 858.048,1122.04 911.284,1118.74C979.73,1114.5 963.468,1117.42 1025.3,1097.25C1103.4,1071.76 1103.57,953.265 1112.19,928.148C1114.77,920.61 1116.48,907.776 1117.5,891.437" style="fill:none;stroke:black;stroke-width:8.16px;"/>
            </g>
            <g transform="matrix(0.318647,0,0,0.318647,140.634,-125.306)">
                <path d="M1019.97,638.273C1020.98,629.409 1000.19,648.286 1006,657C1011.72,665.574 1025.92,657.831 1031,668C1036.86,679.713 1021.78,696.709 1028,705C1035.79,715.392 1030.89,716.678 1035,729C1035.57,730.716 1038.07,729.626 1039,730C1072.25,743.299 1056.54,763.54 1066,773C1067.67,774.675 1072.54,771.073 1074,774C1081.42,788.844 1058.32,839.756 1072,858C1077.67,865.563 1094.98,854.976 1101,861C1106.78,866.781 1101.57,887 1108,887" style="fill:none;stroke:black;stroke-width:8.16px;"/>
            </g>
            <g transform="matrix(0.318647,0,0,0.318647,140.634,-125.306)">
                <path d="M1053.53,561.187C1053.69,561.125 1053.84,561.062 1054,561" style="fill:none;stroke:black;stroke-width:8.16px;"/>
            </g>
            <g transform="matrix(0.318647,0,0,0.318647,140.634,-125.306)">
                <path d="M1050.91,567.562C1051.26,569.233 1056,565.292 1056,567C1056,568.144 1049.75,570.498 1049,572C1047.1,575.796 1047.74,582.767 1046,588C1044.01,593.977 1058.08,592.153 1059,594C1063.32,602.641 1053.64,619.81 1052,628C1050.67,634.666 1058,637.02 1059,643C1060.13,649.781 1056.47,659.674 1059,666C1060.73,670.328 1068.54,668.617 1070,673C1071.97,678.922 1065.49,681.94 1067,688C1072.27,709.095 1075.92,731.473 1079,753C1080.44,763.103 1074.67,776.014 1078,786C1079.5,790.498 1089.19,793.249 1092,797C1100.09,807.782 1096.32,870.662 1103,874" style="fill:none;stroke:black;stroke-width:8.16px;"/>
            </g>
            <g transform="matrix(0.323128,0,0,0.323128,135.086,-131.521)">
                <path d="M883,867C882.503,865.65 885.931,873.237 888,874C893.818,876.144 905.33,881.333 910,882C934.006,885.429 961.196,881.804 977,866C978.843,864.157 975,858.696 975,857C975,834.339 890.107,838.571 883,867" style="fill:white;stroke:black;stroke-width:8.05px;"/>
            </g>
            <g transform="matrix(1,0,0,1,313.613,-9.04172)">
                <path d="M72.584,216.76C74.641,209.636 93.392,203.806 122.219,202.259C143.56,202.36 158.322,209.27 169.624,218.293C162.204,230.272 145.488,237.128 119.849,239.068C97.911,240.712 82.624,232.59 72.584,216.76Z" style="fill:white;stroke:black;stroke-width:2.6px;"/>
            </g>
            <g transform="matrix(1,0,0,1,313.613,-9.04172)">
                <path d="M107.58,157.922L108.835,219.13C117.432,226.901 126.03,226.603 134.628,220.245L138.114,157.086C126.106,164.135 115.87,164.629 107.58,157.922Z" style="fill:white;stroke:black;stroke-width:2.6px;"/>
            </g>
            <g transform="matrix(0.318647,0,0,0.318647,139.708,-126.123)">
                <path d="M927.813,864.063C929.221,865.941 925.005,836.35 929.719,827.758C934.432,819.165 956.094,812.508 956.094,812.508" style="fill:none;stroke:black;stroke-width:8.16px;"/>
            </g>
        </g>
    </g>
</svg>
