<?xml version="1.0" encoding="UTF-8" standalone="no"?>
<!DOCTYPE svg PUBLIC "-//W3C//DTD SVG 1.1//EN" "http://www.w3.org/Graphics/SVG/1.1/DTD/svg11.dtd">
<svg width="100%" height="100%" viewBox="0 0 257 256" version="1.1" xmlns="http://www.w3.org/2000/svg" xmlns:xlink="http://www.w3.org/1999/xlink" xml:space="preserve" xmlns:serif="http://www.serif.com/" style="fill-rule:evenodd;clip-rule:evenodd;stroke-linecap:round;stroke-linejoin:round;stroke-miterlimit:1.5;">
    <g transform="matrix(1,0,0,1,-712,0)">
        <g id="_0-" serif:id="0%" transform="matrix(1,0,0,1,-0.162433,0)">
            <rect x="712.162" y="0" width="256.162" height="255.349" style="fill:none;"/>
            <g transform="matrix(0.255123,0,0,0.305561,595.267,-120.919)">
                <g transform="matrix(-0.18443,-0.982846,0.0862979,-0.0161937,709.267,1910.27)">
                    <path d="M1059.06,558.82C1034.14,556.365 910.385,541.637 907,542C891.48,543.663 768.073,547.971 784,589C788.064,599.47 843.132,618.83 854,621C905.256,631.233 964.632,636.114 1018.34,628.753" style="fill:none;stroke:black;stroke-width:12px;"/>
                </g>
                <g transform="matrix(-0.18443,-0.982846,0.982846,-0.18443,182.867,2009.05)">
                    <path d="M784.281,584.25C784.281,584.25 769.423,681.342 759.54,783.164" style="fill:none;stroke:black;stroke-width:8.95px;"/>
                </g>
                <g transform="matrix(-0.18443,-0.982846,1.17641,-0.220751,13.1612,2037.94)">
                    <path d="M1019.97,638.273C1020.98,629.409 1000.19,648.286 1006,657C1011.72,665.574 1025.92,657.831 1031,668C1036.86,679.713 1021.78,696.709 1028,705C1035.79,715.392 1030.89,716.678 1035,729C1035.57,730.716 1038.07,729.626 1039,730C1072.25,743.299 1056.54,763.54 1066,773C1067.67,774.675 1072.54,771.073 1074,774C1081.42,788.844 1050.58,832.274 1064.26,850.518" style="fill:none;stroke:black;stroke-width:8.24px;"/>
                </g>
                <g transform="matrix(-0.18443,-0.982846,0.892576,-0.167491,263.745,1990.92)">
                    <path d="M1050.91,567.562C1051.26,569.233 1056,565.292 1056,567C1056,568.144 1049.75,570.498 1049,572C1047.1,575.796 1047.74,582.767 1046,588C1044.01,593.977 1058.08,592.153 1059,594C1063.32,602.641 1053.64,619.81 1052,628C1050.67,634.666 1058,637.02 1059,643C1060.13,649.781 1056.47,659.674 1059,666C1060.73,670.328 1068.54,668.617 1070,673C1071.97,678.922 1065.49,681.94 1067,688C1072.27,709.095 1075.92,731.473 1079,753C1080.44,763.103 1074.67,776.014 1078,786C1079.5,790.498 1088.7,821.962 1091.51,825.713" style="fill:none;stroke:black;stroke-width:9.3px;"/>
                </g>
                <path d="M805.25,809.102C804.983,808.993 800.922,826.202 791,852C785.529,866.223 771,909.912 771,924C771,924.889 769.352,926.352 770,927C782.309,939.309 834.799,940.397 841,959C843.421,966.264 834.447,984.707 832,991C827.938,1001.45 806.157,1101.16 817,1112" style="fill:none;stroke:black;stroke-width:9.24px;"/>
                <path d="M796.625,771.133C798.518,770.462 796.58,775.58 798,777C807.506,786.506 813.119,801.239 819,813C822.748,820.497 852.881,880.119 844,889C824.556,908.444 767.473,963.581 757,995C747.75,1022.75 785.733,1062.89 799,1085C802.584,1090.97 804.088,1102.09 809,1107C811.953,1109.95 818,1107.2 818,1112" style="fill:none;stroke:black;stroke-width:9.24px;"/>
            </g>
            <g transform="matrix(0.255123,0,0,0.305561,659.733,-122.702)">
                <path d="M965.688,914.336C965.806,914.208 965.364,915.102 964,896C963.42,887.885 962.75,881.124 964,873C964.308,870.996 964.776,869.015 965,867C965.961,858.355 962.8,860 954,860C951.573,860 947,855.573 947,858C947,861.426 949.262,868 942,868C935.709,868 928.834,852.834 925,849C924.758,848.758 924.053,856.027 920,854C911.244,849.622 906.08,815.307 916,812" style="fill:none;stroke:black;stroke-width:9.24px;"/>
                <path d="M967.656,911.664C959.133,916.027 974.578,920.474 979,919C988.669,915.777 1006.99,899.011 1013,890C1017.31,883.531 995.503,875.497 1001,870C1003.17,867.835 1008.88,875.116 1009,875C1011.58,872.419 1005.27,855.199 1005,852C1004.29,843.446 1011.05,845.313 1010,839C1008.55,830.281 995.039,825.195 994,820C993.509,817.544 993.929,815.142 995,813" style="fill:none;stroke:black;stroke-width:9.24px;"/>
                <path d="M953.75,921.766C957.023,924.834 938.027,944.892 927,938C913.967,929.855 918.33,907.083 902,903C883.757,898.439 883.461,925.513 873,929C868.078,930.641 862.867,929.567 858,932" style="fill:none;stroke:black;stroke-width:9.24px;"/>
                <path d="M968.344,925.867C961.925,928.347 976.872,936.15 976,944C974.926,953.669 962.313,961.251 965,972C970.504,994.017 1009.58,981.207 1015,1011C1016.73,1020.54 1017.02,1026.66 1028,1023" style="fill:none;stroke:black;stroke-width:9.24px;"/>
                <path d="M979.875,925.469C980.527,923.026 984.068,919.58 999,937C1003.71,942.499 999.712,947.85 1001,953C1001.78,956.134 1011.61,952 1014,952C1024.26,952 1029.95,956.475 1039,961" style="fill:none;stroke:black;stroke-width:9.24px;"/>
            </g>
            <g transform="matrix(0.255123,0,0,0.305561,659.733,-122.702)">
                <g transform="matrix(-0.18443,-0.982846,0.982846,-0.18443,182.867,2009.05)">
                    <path d="M759.54,783.164C751.421,866.807 746.66,953.641 756.25,992.469C767.672,1038.71 794.818,1066.53 830.897,1073.92C879.647,1083.92 986.917,1072.61 1048.75,1052.43C1126.85,1026.94 1103.57,953.265 1112.19,928.148C1114.77,920.61 1116.48,907.776 1117.5,891.437" style="fill:none;stroke:black;stroke-width:8.95px;"/>
                </g>
                <path d="M805.25,809.102C804.983,808.993 800.922,826.202 791,852C785.529,866.223 771,909.912 771,924C771,924.889 769.352,926.352 770,927C782.309,939.309 834.799,940.397 841,959C843.421,966.264 834.447,984.707 832,991C827.938,1001.45 806.157,1101.16 817,1112" style="fill:none;stroke:black;stroke-width:9.24px;"/>
                <g transform="matrix(-0.18443,-0.982846,0.892576,-0.167491,268.62,1976.32)">
                    <path d="M1091.51,825.713C1099.6,836.495 1096.32,870.662 1103,874" style="fill:none;stroke:black;stroke-width:9.3px;"/>
                </g>
                <g transform="matrix(-0.18443,-0.982846,1.17641,-0.220751,4.69244,2030.27)">
                    <path d="M1064.26,850.518C1069.93,858.081 1094.98,854.976 1101,861C1106.78,866.781 1101.57,887 1108,887" style="fill:none;stroke:black;stroke-width:8.24px;"/>
                </g>
                <g transform="matrix(0.993553,0.113367,-0.113367,0.993553,72.9748,-70.9464)">
                    <g transform="matrix(1.10152,-0.217127,0.213714,1.08421,20.2119,593.343)">
                        <rect x="582.156" y="510.391" width="195.844" height="78.609" style="fill:white;stroke:black;stroke-width:8.43px;"/>
                    </g>
                    <g transform="matrix(-0.18443,-0.982846,1.01607,-0.190664,76.2799,2140.38)">
                        <path d="M927.813,864.063C929.221,865.941 925.005,836.35 929.719,827.758C934.432,819.165 956.094,812.508 956.094,812.508" style="fill:white;stroke:black;stroke-width:8.99px;"/>
                    </g>
                </g>
                <path d="M796.625,771.133C798.518,770.462 796.58,775.58 798,777C807.506,786.506 813.119,801.239 819,813C822.748,820.497 852.881,880.119 844,889C824.556,908.444 767.473,963.581 757,995C747.75,1022.75 785.733,1062.89 799,1085C802.584,1090.97 804.088,1102.09 809,1107C811.953,1109.95 818,1107.2 818,1112" style="fill:none;stroke:black;stroke-width:9.24px;"/>
            </g>
            <g transform="matrix(0.0598798,-0.297025,0.247997,0.071718,670.124,552.727)">
                <g transform="matrix(1,-3.48116e-18,2.6923e-18,0.268294,222.787,403.972)">
                    <path d="M1018.34,628.753C1028.81,627.318 1039.06,625.417 1049,623C1067.33,618.542 1087.72,611.459 1103,600C1119.63,587.531 1086.81,569.091 1056.51,556.73C1045.66,552.304 1037.59,547.357 1027.31,546.344" style="fill:none;stroke:black;stroke-width:12.05px;"/>
                </g>
                <g transform="matrix(1,0,0,1,220.438,-25.25)">
                    <path d="M1117.5,891.437C1123.22,800.596 1108.09,601.398 1108.09,601.398" style="fill:none;stroke:black;stroke-width:9.64px;"/>
                </g>
                <g transform="matrix(1,-8.67362e-19,2.60209e-18,1.21585,220.438,-216.709)">
                    <path d="M1019.97,638.273C1020.98,629.409 1000.19,648.286 1006,657C1011.72,665.574 1025.92,657.831 1031,668C1036.86,679.713 1021.78,696.709 1028,705C1035.79,715.392 1030.89,716.678 1035,729C1035.57,730.716 1038.07,729.626 1039,730C1072.25,743.299 1056.54,763.54 1066,773C1067.67,774.675 1072.54,771.073 1074,774C1081.42,788.844 1058.32,839.756 1072,858C1077.67,865.563 1094.98,854.976 1101,861C1106.78,866.781 1101.57,887 1108,887" style="fill:none;stroke:black;stroke-width:8.8px;"/>
                </g>
                <g transform="matrix(1,0,0,1,220.438,-25.25)">
                    <path d="M1053.53,561.187C1053.69,561.125 1053.84,561.062 1054,561" style="fill:none;stroke:black;stroke-width:9.64px;"/>
                </g>
                <g transform="matrix(1.02988,-1.59669e-18,8.93277e-19,0.932685,187.482,33.5831)">
                    <path d="M1050.91,567.562C1051.26,569.233 1056,565.292 1056,567C1056,568.144 1049.75,570.498 1049,572C1047.1,575.796 1047.74,582.767 1046,588C1044.01,593.977 1058.08,592.153 1059,594C1063.32,602.641 1053.64,619.81 1052,628C1050.67,634.666 1058,637.02 1059,643C1060.13,649.781 1056.47,659.674 1059,666C1060.73,670.328 1068.54,668.617 1070,673C1071.97,678.922 1065.49,681.94 1067,688C1072.27,709.095 1075.92,731.473 1079,753C1080.44,763.103 1074.67,776.014 1078,786C1079.5,790.498 1089.19,793.249 1092,797C1100.09,807.782 1096.32,870.662 1103,874" style="fill:none;stroke:black;stroke-width:9.72px;"/>
                </g>
            </g>
        </g>
    </g>
</svg>
