<?xml version="1.0" encoding="UTF-8" standalone="no"?>
<!DOCTYPE svg PUBLIC "-//W3C//DTD SVG 1.1//EN" "http://www.w3.org/Graphics/SVG/1.1/DTD/svg11.dtd">
<svg width="100%" height="100%" viewBox="0 0 257 256" version="1.1" xmlns="http://www.w3.org/2000/svg" xmlns:xlink="http://www.w3.org/1999/xlink" xml:space="preserve" xmlns:serif="http://www.serif.com/" style="fill-rule:evenodd;clip-rule:evenodd;stroke-linecap:round;stroke-linejoin:round;stroke-miterlimit:1.5;">
    <g id="_100-" serif:id="100%" transform="matrix(1,0,0,1,0.299827,-0.143355)">
        <rect x="-0.3" y="0.143" width="256.162" height="255.349" style="fill:none;"/>
        <g transform="matrix(0.257137,0,0,0.260931,-122.609,-65.9326)">
            <rect x="657.438" y="385.758" width="627.563" height="104.242" style="fill:rgb(194,194,194);stroke:black;stroke-width:10.04px;"/>
        </g>
        <g transform="matrix(0.260931,0,0,0.260931,-45.3478,-65.16)">
            <g transform="matrix(1.14675,0,0,1.16844,-61.9136,-160.066)">
                <rect x="360.562" y="553.758" width="270.438" height="556.242" style="fill:white;stroke:black;stroke-width:8.61px;"/>
            </g>
            <g transform="matrix(1,0,0,1,3,73.0625)">
                <ellipse cx="595.734" cy="762.262" rx="30.266" ry="31.738" style="fill:rgb(194,194,194);stroke:black;stroke-width:9.96px;"/>
            </g>
        </g>
        <g transform="matrix(0.260931,0,0,0.260931,-45.3478,-65.16)">
            <g transform="matrix(-1.14964,0,0,1.16844,1387.11,-160.066)">
                <rect x="360.562" y="553.758" width="270.438" height="556.242" style="fill:white;stroke:black;stroke-width:8.6px;"/>
            </g>
            <g transform="matrix(-1.00252,0,0,1,1322.03,73.0625)">
                <ellipse cx="595.734" cy="762.262" rx="30.266" ry="31.738" style="fill:rgb(194,194,194);stroke:black;stroke-width:9.95px;"/>
            </g>
        </g>
    </g>
</svg>
