<?xml version="1.0" encoding="UTF-8" standalone="no"?>
<!DOCTYPE svg PUBLIC "-//W3C//DTD SVG 1.1//EN" "http://www.w3.org/Graphics/SVG/1.1/DTD/svg11.dtd">
<svg width="100%" height="100%" viewBox="0 0 257 256" version="1.1" xmlns="http://www.w3.org/2000/svg" xmlns:xlink="http://www.w3.org/1999/xlink" xml:space="preserve" xmlns:serif="http://www.serif.com/" style="fill-rule:evenodd;clip-rule:evenodd;stroke-linecap:round;stroke-linejoin:round;stroke-miterlimit:1.5;">
    <g transform="matrix(1,0,0,1,-356,0)">
        <g id="_50-" serif:id="50%" transform="matrix(1,0,0,1,-0.162433,0)">
            <rect x="356.162" y="0" width="256.162" height="255.349" style="fill:none;"/>
            <clipPath id="_clip1">
                <rect x="356.162" y="0" width="256.162" height="255.349"/>
            </clipPath>
            <g clip-path="url(#_clip1)">
                <g transform="matrix(0.237154,0,0,0.240654,224.364,-46.5179)">
                    <rect x="657.438" y="385.758" width="627.563" height="104.242" style="fill:rgb(194,194,194);stroke:black;stroke-width:10.88px;"/>
                </g>
                <g transform="matrix(0.27597,0,0,0.28119,280.721,-84.3257)">
                    <rect x="360.562" y="553.758" width="270.438" height="556.242" style="fill:white;stroke:black;stroke-width:9.33px;"/>
                </g>
                <g transform="matrix(0.238949,0,0,0.238901,296.22,-43.8129)">
                    <g transform="matrix(1.14675,0,0,1.16844,-61.9136,-160.066)">
                        <path d="M594.663,620.983L360.562,553.758L360.562,1110L594.663,1177.23L594.663,620.983Z" style="fill:white;stroke:black;stroke-width:9.4px;"/>
                    </g>
                    <g transform="matrix(0.653197,0,0,0.967517,177.012,135.999)">
                        <ellipse cx="595.734" cy="762.262" rx="30.266" ry="31.738" style="fill:white;stroke:black;stroke-width:13.18px;"/>
                    </g>
                </g>
                <g transform="matrix(-0.276665,0,0,0.28119,629.434,-84.3257)">
                    <rect x="360.562" y="553.758" width="270.438" height="556.242" style="fill:white;stroke:black;stroke-width:9.32px;"/>
                </g>
                <g transform="matrix(-0.276665,0,0,0.0480029,629.434,174.512)">
                    <rect x="360.562" y="553.758" width="270.438" height="556.242" style="fill:none;stroke:black;stroke-width:13.09px;"/>
                </g>
                <g transform="matrix(0.272952,0.02603,-0.0266945,0.27992,457.085,-89.5532)">
                    <path d="M622.388,503.765L360.562,553.758L360.562,1110L622.388,1060.01L622.388,503.765Z" style="fill:white;stroke:black;stroke-width:9.36px;"/>
                </g>
                <g transform="matrix(0.240654,0,0,0.240654,295.621,-45.8053)">
                    <path d="M963.969,984.633C964.385,989.521 942.507,969.754 939,968C931.177,964.088 918.944,980.112 916,986C905.325,1007.35 956.088,1019 961,1019C961.783,1019 965.501,1018.5 966,1019C971.73,1024.73 1000.81,1042.77 1008.25,1039.05C1024.67,1030.84 1027.12,994.608 1015.75,972.641C1011.55,964.531 970,970.73 970,986L963.969,984.633Z" style="fill:none;stroke:black;stroke-width:10.8px;"/>
                </g>
                <g transform="matrix(-0.276665,0,0,0.0477578,629.667,136.001)">
                    <rect x="360.562" y="553.758" width="270.438" height="556.242" style="fill:white;stroke:black;stroke-width:13.1px;"/>
                </g>
                <g transform="matrix(-0.276665,0,0,0.0107162,629.818,82.6101)">
                    <rect x="360.562" y="553.758" width="270.438" height="556.242" style="fill:rgb(148,148,148);stroke:black;stroke-width:13.28px;"/>
                </g>
            </g>
        </g>
    </g>
</svg>
