<?xml version="1.0" encoding="UTF-8" standalone="no"?>
<!DOCTYPE svg PUBLIC "-//W3C//DTD SVG 1.1//EN" "http://www.w3.org/Graphics/SVG/1.1/DTD/svg11.dtd">
<svg width="100%" height="100%" viewBox="0 0 257 256" version="1.1" xmlns="http://www.w3.org/2000/svg" xmlns:xlink="http://www.w3.org/1999/xlink" xml:space="preserve" xmlns:serif="http://www.serif.com/" style="fill-rule:evenodd;clip-rule:evenodd;stroke-linecap:round;stroke-linejoin:round;stroke-miterlimit:1.5;">
    <g transform="matrix(1,0,0,1,-356,0)">
        <g id="back" transform="matrix(1,0,0,1,-0.162433,0)">
            <rect x="356.162" y="0" width="256.162" height="255.349" style="fill:none;"/>
            <g id="Face" transform="matrix(0.407441,0,0,0.449463,386.717,-25.1045)">
                <path d="M139.058,199.679C117.944,215.902 80.758,161.582 80.304,192.268C79.901,219.51 84.449,252.975 87.642,290.909L367.414,240.71C369.076,212.812 337.821,144.538 320.792,122.682C308.148,106.455 285.728,184.541 271.119,187.448C251.907,191.272 239.366,160.548 233.041,143.719C224.089,119.897 207.37,71.382 176.674,78.662C152.197,86.949 140.113,172.598 139.058,199.679Z" style="fill:rgb(0,136,126);stroke:rgb(12,0,0);stroke-width:8.86px;"/>
                <path d="M144.399,371.666C143.545,370.929 116.685,318.496 115.421,312.313C90.794,314.735 85.631,304.454 86.957,289.772C86.612,280.181 90.962,275.007 97.687,272.069C108.776,269.653 117.404,270.642 122.436,276.606C201.242,238.899 279.018,226.509 365.624,233.197L376.958,267.29L371.177,292.186C371.177,292.186 350.235,299.637 350.921,299.973C354.036,301.498 346.005,355.553 329.621,368.678C314.051,381.149 277.257,457.558 236.817,460.879C201.077,463.814 161.737,386.625 144.399,371.666Z" style="fill:rgb(217,145,100);stroke:rgb(12,0,0);stroke-width:8.86px;"/>
            </g>
            <g id="Feet" transform="matrix(0.407441,0,0,0.449463,386.717,-25.1045)">
                <g transform="matrix(2.45434,0,0,2.22488,-70.0832,55.8544)">
                    <path d="M70.215,240.224L105.023,239.89C105.248,223.451 98.913,215.749 87.702,215.741C76.54,215.733 69.369,225.921 70.215,240.224Z" style="fill:rgb(0,136,126);stroke:rgb(0,79,73);stroke-width:1px;"/>
                </g>
                <g transform="matrix(2.45434,0,0,2.22488,95.4653,55.8544)">
                    <path d="M70.215,240.224L105.023,239.89C105.248,223.451 98.913,215.749 87.702,215.741C76.54,215.733 69.369,225.921 70.215,240.224Z" style="fill:rgb(0,136,126);stroke:rgb(0,79,73);stroke-width:1px;"/>
                </g>
            </g>
            <g transform="matrix(1,0,0,1,358.112,6.03961e-14)">
                <ellipse cx="71.443" cy="177.963" rx="14.638" ry="14.841" style="fill:rgb(0,136,126);"/>
            </g>
            <g id="Hammer" transform="matrix(0.407441,0,0,0.449463,491.546,-25.1045)">
                <g transform="matrix(-2.45434,-2.63678e-16,2.63678e-16,-2.22488,250.39,739.075)">
                    <path d="M33.797,154.619L39.926,146.891L82.561,146.891L82.561,161.28L40.192,161.28L33.797,154.619Z" style="fill:rgb(98,98,98);stroke:black;stroke-width:1.69px;"/>
                </g>
                <g transform="matrix(2.45434,0,0,2.44019,-57.1098,18.9816)">
                    <rect x="61.278" y="146.044" width="8.945" height="50.419" style="fill:rgb(143,57,0);"/>
                </g>
                <g transform="matrix(2.45434,0,0,2.22488,-70.0832,55.8544)">
                    <ellipse cx="71.443" cy="177.963" rx="14.638" ry="14.841" style="fill:rgb(0,136,126);"/>
                </g>
            </g>
            <g id="Body" transform="matrix(1,0,0,1.22149,406.63,4.92741)">
                <circle cx="74.345" cy="137.101" r="49.199"/>
            </g>
            <g id="hair" transform="matrix(0.407441,0,0,0.449463,386.717,-25.1045)">
                <path d="M175.643,235.434C212.873,230.852 235.539,228.459 235.539,228.459C252.891,229.729 281.749,209.949 308.569,223.862C324.921,232.345 354.161,221.908 369.185,230.741C384.23,239.587 388.965,247.047 395.562,268.956C397.396,275.047 381.611,273.901 393.201,305.121C395.722,311.911 382.646,304.192 373.273,312.141C365.096,319.076 374.949,326.811 373.386,340.642C371.501,357.33 354.31,372.779 336.396,371.881C321.325,371.127 298.019,397.255 278.131,393.783C250.822,389.014 230.533,381.546 214.019,392.302C188.283,409.064 169.493,408.874 156.252,384.79C151.645,376.409 144.386,365.682 128.136,362.732C117.292,360.763 112.422,339.072 109.633,331.451C104.463,317.326 90.055,325.919 75.393,323.385C83.525,317.962 85.927,312.699 84.14,307.552C76.993,298.041 70.829,283.005 55.033,281.707C66.133,268.21 74.556,242.218 85.359,239.357C91.762,236.157 107.3,232.496 127.064,232.11C127.064,232.11 158.4,237.557 175.643,235.434Z" style="fill:rgb(2,0,0);stroke:white;stroke-width:5.06px;"/>
            </g>
        </g>
    </g>
</svg>
