<?xml version="1.0" encoding="UTF-8" standalone="no"?>
<!DOCTYPE svg PUBLIC "-//W3C//DTD SVG 1.1//EN" "http://www.w3.org/Graphics/SVG/1.1/DTD/svg11.dtd">
<svg width="100%" height="100%" viewBox="0 0 257 256" version="1.1" xmlns="http://www.w3.org/2000/svg" xmlns:xlink="http://www.w3.org/1999/xlink" xml:space="preserve" xmlns:serif="http://www.serif.com/" style="fill-rule:evenodd;clip-rule:evenodd;stroke-linecap:round;stroke-linejoin:round;stroke-miterlimit:1.5;">
    <g transform="matrix(1,0,0,1,-712,0)">
        <g id="_0-" serif:id="0%" transform="matrix(1,0,0,1,-0.162433,0)">
            <rect x="712.162" y="0" width="256.162" height="255.349" style="fill:none;"/>
            <g transform="matrix(1,0,0,1,0.162433,0)">
                <path d="M777.434,105.698L758.317,197.938L763.898,200.031L769.48,181.332L817.763,193.193L819.996,186.774L818.042,181.192L830.182,179.239L813.856,171.424L832.973,171.703L825.996,162.633L832.555,161.237L828.229,155.237L835.485,151.329L824.74,143.236L834.229,138.352L834.229,131.793L777.434,105.698Z" style="fill:rgb(96,17,0);stroke:black;stroke-width:3px;"/>
            </g>
            <g transform="matrix(1,0,0,1,0.162433,0)">
                <path d="M833.252,193.472L834.787,200.031L841.346,198.496L839.253,191.798L833.252,193.472Z" style="fill:white;stroke:black;stroke-width:3px;"/>
            </g>
            <g transform="matrix(1,0,0,1,-39.9023,14.4451)">
                <path d="M833.252,193.472L834.787,200.031L841.346,198.496L839.253,191.798L833.252,193.472Z" style="fill:white;stroke:black;stroke-width:3px;"/>
            </g>
            <g transform="matrix(1,0,0,1,0.162433,0)">
                <path d="M790.691,119.653L784.691,144.352L828.368,156.214L835.625,151.469L825.298,142.817L834.648,137.654L834.369,131.654L790.691,119.653Z" style="fill:white;stroke:black;stroke-width:3px;"/>
            </g>
            <g transform="matrix(1,0,0,1,0.162433,0)">
                <path d="M784.97,143.934L779.388,168.354L821.251,180.355L830.461,179.378L814.972,171.145L831.857,170.866L827.252,162.214L833.113,160.4L828.647,155.237L784.97,143.934Z" style="fill:white;stroke:black;stroke-width:3px;"/>
            </g>
            <g transform="matrix(1,0,0,1,0.162433,0)">
                <path d="M782.179,67.742L841.765,101.791L836.462,107.233L838.695,113.652L833.252,115.745L838.695,121.048L832.834,123.281L836.601,128.165L831.299,133.189L834.787,139.468L773.806,104.582L782.179,67.742Z" style="fill:white;stroke:black;stroke-width:3px;"/>
            </g>
            <g transform="matrix(1,0,0,1,0.162433,0)">
                <path d="M896.885,64.672L834.229,103.605L841.765,103.465L836.462,108.35L840.23,112.955L837.857,117.42L842.044,120.49L839.113,127.467L845.253,128.444L839.532,140.864L906.514,101.791L896.885,64.672Z" style="fill:white;stroke:black;stroke-width:3px;"/>
            </g>
            <g transform="matrix(1,0,0,1,0.162433,0)">
                <path d="M900.095,105.419L924.096,198.077L914.607,201.008L907.63,180.215L853.905,197.659L850.416,187.332L846.788,185.239L854.324,178.68L840.23,178.959L855.58,168.633L847.765,164.168L850.277,159.842L846.091,157.749L848.602,149.515L837.439,148.957L843.718,139.329L900.095,105.419Z" style="fill:rgb(96,17,0);stroke:black;stroke-width:3px;"/>
            </g>
            <g transform="matrix(1,0,0,1,0.162433,0)">
                <path d="M842.044,140.724L837.16,149.097L849.161,149.934L845.393,157.469L850.975,159.563L891.303,145.887L885.442,122.165L861.72,128.165L843.021,139.468L842.044,140.724Z" style="fill:white;stroke:black;stroke-width:3px;"/>
            </g>
            <g transform="matrix(1,0,0,1,0.162433,0)">
                <path d="M891.582,145.748L897.583,169.331L851.254,183.425L858.091,177.006L839.532,179.099L856.277,168.354L847.207,164.447L850.975,158.865L891.582,145.748Z" style="fill:white;stroke:black;stroke-width:3px;"/>
            </g>
            <g transform="matrix(0.125672,-0.0467536,0.0601293,0.161626,696.469,72.0603)">
                <path d="M1304.47,834.68C1304.76,837.687 1297.64,838.137 1295.5,836C1291.97,832.47 1295.01,821.513 1292.5,819C1291.46,817.96 1287.2,819.278 1285.5,818C1277.14,811.733 1271.45,794.909 1267.5,787C1266.16,784.314 1256.25,793 1254.5,793C1253.29,793 1256.69,786.575 1256.5,786C1255.55,783.145 1247.95,785.637 1246.5,786" style="fill:none;stroke:black;stroke-width:19.42px;"/>
            </g>
            <g transform="matrix(0.125672,-0.0467536,0.0601293,0.161626,696.469,72.0603)">
                <path d="M1291.75,844.383C1290.96,843.171 1280.53,861.612 1271.5,858C1270.63,857.65 1270.09,856.736 1269.5,856C1267.26,853.205 1265.89,849.643 1266.5,846C1266.85,843.895 1272.01,842.509 1270.5,841C1267.96,838.463 1259.94,834.44 1256.5,831C1255.55,830.05 1259.07,825.572 1257.5,824C1255.36,821.857 1247.78,828.546 1244.5,828C1237.58,826.847 1234.98,821.581 1233.5,829" style="fill:none;stroke:black;stroke-width:19.42px;"/>
            </g>
            <g transform="matrix(0.125672,-0.0467536,0.0601293,0.161626,696.469,72.0603)">
                <path d="M1297.59,853.664C1294.09,866.227 1285.65,868.733 1277.5,883C1271.51,893.477 1273.64,904.856 1264.5,914C1257.63,920.869 1244.98,924.091 1242.5,934" style="fill:none;stroke:black;stroke-width:19.42px;"/>
            </g>
        </g>
    </g>
</svg>
