<?xml version="1.0" encoding="UTF-8" standalone="no"?>
<!DOCTYPE svg PUBLIC "-//W3C//DTD SVG 1.1//EN" "http://www.w3.org/Graphics/SVG/1.1/DTD/svg11.dtd">
<svg width="100%" height="100%" viewBox="0 0 257 256" version="1.1" xmlns="http://www.w3.org/2000/svg" xmlns:xlink="http://www.w3.org/1999/xlink" xml:space="preserve" xmlns:serif="http://www.serif.com/" style="fill-rule:evenodd;clip-rule:evenodd;stroke-linecap:round;stroke-linejoin:round;stroke-miterlimit:1.5;">
    <g transform="matrix(1,0,0,1,-712,0)">
        <g id="_0-" serif:id="0%" transform="matrix(1,0,0,1,-0.162433,0)">
            <rect x="712.162" y="0" width="256.162" height="255.349" style="fill:none;"/>
            <g transform="matrix(0.158736,0.0415922,-0.0386861,0.17066,752.776,-7.11886)">
                <g transform="matrix(1,0,0,1,-178.297,42.0926)">
                    <g transform="matrix(1,0,0,0.732361,-121.063,-103.43)">
                        <path d="M978.344,729.469L573.781,589.778L573.781,879.668L949.438,1020.7" style="fill:none;stroke:black;stroke-width:20.06px;"/>
                    </g>
                    <g transform="matrix(1,0,0,1,-63.2188,5.71875)">
                        <path d="M920.313,435.211C920.667,435.758 921.182,433.273 917.5,434.5C911.397,436.534 901.226,453.592 895.5,458.5C892.172,461.352 880.019,466.574 881.5,472.5C884.34,483.859 912.271,486.381 920.063,494.172C925.961,500.071 873.95,503.149 869.5,516.5C868.607,519.179 874.441,518.5 875.5,518.5C884.147,518.5 908.301,523.301 914.5,529.5C922.175,537.175 883.671,555.816 881.5,564.5C879.391,572.937 911.473,571.668 915.5,576.5C923.942,586.63 901.345,625.655 893.5,633.5C893.389,633.611 889.595,634.5 892.5,634.5" style="fill:none;stroke:black;stroke-width:17.4px;"/>
                    </g>
                </g>
                <g transform="matrix(1,0,0,1,-221.953,-43.3137)">
                    <path d="M896.938,695.836C896.792,695.724 896.646,695.612 896.5,695.5" style="fill:none;stroke:black;stroke-width:17.4px;"/>
                </g>
                <g transform="matrix(1,0,0,1.11004,-222.141,-139.005)">
                    <path d="M710.781,705.719L617.344,708.352L617.344,836L894.62,839.083" style="fill:none;stroke:black;stroke-width:16.42px;"/>
                </g>
                <g transform="matrix(1,0,0,1,-221.953,-43.3137)">
                    <path d="M896.688,704.109C896.625,704.073 896.563,704.036 896.5,704" style="fill:none;stroke:black;stroke-width:17.4px;"/>
                </g>
                <g transform="matrix(1,0,0,1,-221.953,-43.3137)">
                    <path d="M895.219,705.422C895.546,704.931 893.764,704.472 893.5,705C887.089,717.822 894.547,733 905.5,733" style="fill:none;stroke:black;stroke-width:17.4px;"/>
                </g>
                <g transform="matrix(0.746624,0,0,0.964018,-2.92502,-252.189)">
                    <rect x="885.406" y="1139.23" width="48.594" height="42.773" style="fill:none;stroke:black;stroke-width:20.03px;"/>
                </g>
                <g transform="matrix(1,0,0,1.11004,-223.016,4.97127)">
                    <path d="M896.959,711.575L617.344,708.352L617.344,836L866.082,838.097" style="fill:none;stroke:black;stroke-width:16.42px;"/>
                </g>
                <g transform="matrix(1.24454,0,0,1,-458.785,-112.204)">
                    <path d="M605.938,709.687L615.379,1243.48L647.574,1243.36L652.022,1128.68L893.951,1124.47" style="fill:none;stroke:black;stroke-width:15.52px;"/>
                </g>
                <g transform="matrix(1,0,0,1,-242.788,-35.6734)">
                    <path d="M910.75,684.211C891.507,667.974 923.322,716.287 923.5,717C926.334,728.338 870.291,766.217 870.291,766.217L948.344,792.68C948.344,792.68 897.615,815.338 911.5,832L943.5,848.813C944.527,857.028 903.5,868 903.5,868C903.5,868 965.36,897.137 962.75,905.836C958.714,919.29 784.906,944.384 839.375,935.492C847.921,934.097 962.406,954.258 962.406,954.258C962.406,954.258 888.323,969.297 885.5,982C883.669,990.238 896.633,999.355 899.5,1007C903.839,1018.57 898.031,1043.39 898.031,1054.29" style="fill:none;stroke:black;stroke-width:17.4px;"/>
                </g>
            </g>
            <g transform="matrix(0.157772,-0.0456332,0.0424448,0.169624,666.783,58.8925)">
                <g transform="matrix(1,0,0,1,-117.75,110.258)">
                    <g transform="matrix(1,0,0,0.732361,17.5313,-140.774)">
                        <path d="M1021.47,1039.04L1452.89,879.299L1454,582.556L1043.41,746.196" style="fill:none;stroke:black;stroke-width:20.74px;"/>
                    </g>
                    <g transform="matrix(1,0,0,1,149.312,-22.3672)">
                        <path d="M920.313,435.211C920.667,435.758 921.182,433.273 917.5,434.5C911.397,436.534 901.226,453.592 895.5,458.5C892.172,461.352 880.019,466.574 881.5,472.5C884.34,483.859 912.709,478.709 920.5,486.5C926.399,492.399 873.95,503.149 869.5,516.5C868.607,519.179 874.441,518.5 875.5,518.5C884.147,518.5 908.301,523.301 914.5,529.5C922.175,537.175 883.671,555.816 881.5,564.5C879.391,572.937 911.473,571.668 915.5,576.5C923.942,586.63 901.345,625.655 893.5,633.5C893.389,633.611 889.595,634.5 892.5,634.5" style="fill:none;stroke:black;stroke-width:18.02px;"/>
                    </g>
                </g>
                <g transform="matrix(1,0,0,1.11004,-0.1875,-95.6916)">
                    <path d="M948.839,838.738L1203,836L1200.78,712.182L1069.22,710.041" style="fill:none;stroke:black;stroke-width:16.99px;"/>
                </g>
                <path d="M932.25,695.344C933.554,693.551 929.345,698.77 927.5,700C923.797,702.468 921.229,705.361 918.5,709C909.819,720.574 911.414,724.086 899.5,736" style="fill:none;stroke:black;stroke-width:18.02px;"/>
                <path d="M896.813,685.523C900.408,688.016 920.424,680.725 925.5,680" style="fill:none;stroke:black;stroke-width:18.02px;"/>
                <path d="M925.875,683.133C924.145,682.52 937.27,685.743 942.5,684" style="fill:none;stroke:black;stroke-width:18.02px;"/>
                <g transform="matrix(0.746624,0,0,0.964018,125.435,-95.3972)">
                    <rect x="885.406" y="1139.23" width="48.594" height="42.773" style="fill:none;stroke:black;stroke-width:20.71px;"/>
                </g>
                <g transform="matrix(1,0,0,1.11004,-1.0625,48.2849)">
                    <path d="M941.864,836.239L1203,836L1203,708.352L957.865,713.539" style="fill:none;stroke:black;stroke-width:16.99px;"/>
                </g>
                <path d="M1304.47,834.68C1304.76,837.687 1297.64,838.137 1295.5,836C1291.97,832.47 1295.01,821.513 1292.5,819C1291.46,817.96 1287.2,819.278 1285.5,818C1277.14,811.733 1271.45,794.909 1267.5,787C1266.16,784.314 1256.25,793 1254.5,793C1253.29,793 1256.69,786.575 1256.5,786C1255.55,783.145 1247.95,785.637 1246.5,786" style="fill:none;stroke:black;stroke-width:18.02px;"/>
                <path d="M1291.75,844.383C1290.96,843.171 1280.53,861.612 1271.5,858C1270.63,857.65 1270.09,856.736 1269.5,856C1267.26,853.205 1265.89,849.643 1266.5,846C1266.85,843.895 1272.01,842.509 1270.5,841C1267.96,838.463 1259.94,834.44 1256.5,831C1255.55,830.05 1259.07,825.572 1257.5,824C1255.36,821.857 1247.78,828.546 1244.5,828C1237.58,826.847 1234.98,821.581 1233.5,829" style="fill:none;stroke:black;stroke-width:18.02px;"/>
                <path d="M1297.59,853.664C1294.09,866.227 1285.65,868.733 1277.5,883C1271.51,893.477 1273.64,904.856 1264.5,914C1257.63,920.869 1244.98,924.091 1242.5,934" style="fill:none;stroke:black;stroke-width:18.02px;"/>
                <g transform="matrix(1.24454,0,0,1,-236.832,-68.8906)">
                    <path d="M929.983,1126.14L1197.7,1117.45L1201.08,1242.48L1244.88,1241.71L1244,709.687" style="fill:none;stroke:black;stroke-width:16.06px;"/>
                </g>
                <path d="M910.75,684.211C891.507,667.974 923.322,716.287 923.5,717C926.334,728.338 870.291,766.217 870.291,766.217L948.344,792.68C948.344,792.68 897.615,815.338 911.5,832L943.5,848.813C944.527,857.028 903.5,868 903.5,868C903.5,868 965.36,897.137 962.75,905.836C958.714,919.29 784.906,944.384 839.375,935.492C847.921,934.097 962.406,954.258 962.406,954.258C962.406,954.258 888.323,969.297 885.5,982C883.669,990.238 896.633,999.355 899.5,1007C903.839,1018.57 898.031,1043.39 898.031,1054.29" style="fill:none;stroke:black;stroke-width:18.02px;"/>
            </g>
        </g>
    </g>
</svg>
