<?xml version="1.0" encoding="UTF-8" standalone="no"?>
<!DOCTYPE svg PUBLIC "-//W3C//DTD SVG 1.1//EN" "http://www.w3.org/Graphics/SVG/1.1/DTD/svg11.dtd">
<svg width="100%" height="100%" viewBox="0 0 257 256" version="1.1" xmlns="http://www.w3.org/2000/svg" xmlns:xlink="http://www.w3.org/1999/xlink" xml:space="preserve" xmlns:serif="http://www.serif.com/" style="fill-rule:evenodd;clip-rule:evenodd;stroke-linecap:round;stroke-linejoin:round;stroke-miterlimit:1.5;">
    <g transform="matrix(1,0,0,1,-356,0)">
        <g id="_50-" serif:id="50%" transform="matrix(1,0,0,1,-0.162433,0)">
            <rect x="356.162" y="0" width="256.162" height="255.349" style="fill:none;"/>
            <g transform="matrix(0.134087,0,0,0.172448,370.918,10.6581)">
                <g transform="matrix(1,0,0,0.732361,-121.063,-103.43)">
                    <path d="M978.344,729.469L573.781,589.778L573.781,879.668L949.438,1020.7" style="fill:none;stroke:black;stroke-width:23.03px;"/>
                </g>
                <g transform="matrix(1,0,0,1,-63.2188,5.71875)">
                    <path d="M920.313,435.211C920.667,435.758 921.182,433.273 917.5,434.5C911.397,436.534 901.226,453.592 895.5,458.5C892.172,461.352 880.019,466.574 881.5,472.5C884.34,483.859 912.271,486.381 920.063,494.172C925.961,500.071 873.95,503.149 869.5,516.5C868.607,519.179 874.441,518.5 875.5,518.5C884.147,518.5 908.301,523.301 914.5,529.5C922.175,537.175 883.671,555.816 881.5,564.5C879.391,572.937 911.473,571.668 915.5,576.5C923.942,586.63 901.345,625.655 893.5,633.5C893.389,633.611 889.595,634.5 892.5,634.5" style="fill:none;stroke:black;stroke-width:19.42px;"/>
                </g>
            </g>
            <g transform="matrix(0.134087,0,0,0.172448,349.275,14.9437)">
                <g transform="matrix(1,0,0,0.732361,17.5313,-140.774)">
                    <path d="M1021.47,1039.04L1452.89,879.299L1454,582.556L1043.41,746.196" style="fill:none;stroke:black;stroke-width:23.03px;"/>
                </g>
                <g transform="matrix(1,0,0,1,149.312,-22.3672)">
                    <path d="M920.313,435.211C920.667,435.758 921.182,433.273 917.5,434.5C911.397,436.534 901.226,453.592 895.5,458.5C892.172,461.352 880.019,466.574 881.5,472.5C884.34,483.859 912.709,478.709 920.5,486.5C926.399,492.399 873.95,503.149 869.5,516.5C868.607,519.179 874.441,518.5 875.5,518.5C884.147,518.5 908.301,523.301 914.5,529.5C922.175,537.175 883.671,555.816 881.5,564.5C879.391,572.937 911.473,571.668 915.5,576.5C923.942,586.63 901.345,625.655 893.5,633.5C893.389,633.611 889.595,634.5 892.5,634.5" style="fill:none;stroke:black;stroke-width:19.42px;"/>
                </g>
            </g>
            <g transform="matrix(0.134087,0,0,0.172448,365.064,-4.07009)">
                <path d="M896.938,695.836C896.792,695.724 896.646,695.612 896.5,695.5" style="fill:none;stroke:black;stroke-width:19.42px;"/>
            </g>
            <g transform="matrix(0.134087,0,0,0.191425,365.039,-20.5719)">
                <path d="M710.781,705.719L617.344,708.352L617.344,836L1203,836L1200.78,712.182L1069.22,710.041" style="fill:none;stroke:black;stroke-width:18.15px;"/>
            </g>
            <g transform="matrix(0.134087,0,0,0.172448,365.064,-4.07009)">
                <path d="M896.688,704.109C896.625,704.073 896.563,704.036 896.5,704" style="fill:none;stroke:black;stroke-width:19.42px;"/>
            </g>
            <g transform="matrix(0.134087,0,0,0.172448,365.064,-4.07009)">
                <path d="M895.219,705.422C895.546,704.931 893.764,704.472 893.5,705C887.089,717.822 894.547,733 905.5,733" style="fill:none;stroke:black;stroke-width:19.42px;"/>
            </g>
            <g transform="matrix(0.134087,0,0,0.172448,365.064,-4.07009)">
                <path d="M932.25,695.344C933.554,693.551 929.345,698.77 927.5,700C923.797,702.468 921.229,705.361 918.5,709C909.819,720.574 911.414,724.086 899.5,736" style="fill:none;stroke:black;stroke-width:19.42px;"/>
            </g>
            <g transform="matrix(0.134087,0,0,0.172448,365.064,-4.07009)">
                <path d="M896.813,685.523C900.408,688.016 920.424,680.725 925.5,680" style="fill:none;stroke:black;stroke-width:19.42px;"/>
            </g>
            <g transform="matrix(0.134087,0,0,0.172448,365.064,-4.07009)">
                <path d="M925.875,683.133C924.145,682.52 937.27,685.743 942.5,684" style="fill:none;stroke:black;stroke-width:19.42px;"/>
            </g>
            <g transform="matrix(0.100113,0,0,0.166243,394.864,-66.0424)">
                <rect x="885.406" y="1139.23" width="48.594" height="42.773" style="fill:none;stroke:black;stroke-width:21.86px;"/>
            </g>
            <g transform="matrix(0.100113,0,0,0.166243,394.433,-40.0903)">
                <rect x="885.406" y="1139.23" width="48.594" height="42.773" style="fill:none;stroke:black;stroke-width:21.86px;"/>
            </g>
            <g transform="matrix(0.134087,0,0,0.191425,364.921,4.25656)">
                <rect x="617.344" y="708.352" width="585.656" height="127.648" style="fill:none;stroke:black;stroke-width:18.15px;"/>
            </g>
            <g transform="matrix(0.134087,0,0,0.172448,365.064,-4.07009)">
                <path d="M1304.47,834.68C1304.76,837.687 1297.64,838.137 1295.5,836C1291.97,832.47 1295.01,821.513 1292.5,819C1291.46,817.96 1287.2,819.278 1285.5,818C1277.14,811.733 1271.45,794.909 1267.5,787C1266.16,784.314 1256.25,793 1254.5,793C1253.29,793 1256.69,786.575 1256.5,786C1255.55,783.145 1247.95,785.637 1246.5,786" style="fill:none;stroke:black;stroke-width:19.42px;"/>
            </g>
            <g transform="matrix(0.134087,0,0,0.172448,365.064,-4.07009)">
                <path d="M1291.75,844.383C1290.96,843.171 1280.53,861.612 1271.5,858C1270.63,857.65 1270.09,856.736 1269.5,856C1267.26,853.205 1265.89,849.643 1266.5,846C1266.85,843.895 1272.01,842.509 1270.5,841C1267.96,838.463 1259.94,834.44 1256.5,831C1255.55,830.05 1259.07,825.572 1257.5,824C1255.36,821.857 1247.78,828.546 1244.5,828C1237.58,826.847 1234.98,821.581 1233.5,829" style="fill:none;stroke:black;stroke-width:19.42px;"/>
            </g>
            <g transform="matrix(0.134087,0,0,0.172448,365.064,-4.07009)">
                <path d="M1297.59,853.664C1294.09,866.227 1285.65,868.733 1277.5,883C1271.51,893.477 1273.64,904.856 1264.5,914C1257.63,920.869 1244.98,924.091 1242.5,934" style="fill:none;stroke:black;stroke-width:19.42px;"/>
            </g>
            <g transform="matrix(0.166877,0,0,0.172448,333.308,-15.9501)">
                <path d="M605.938,709.687L615.379,1243.48L647.574,1243.36L652.022,1128.68L1197.7,1117.45L1201.08,1242.48L1244.88,1241.71L1244,709.687" style="fill:none;stroke:black;stroke-width:17.68px;"/>
            </g>
        </g>
    </g>
</svg>
