<?xml version="1.0" encoding="UTF-8" standalone="no"?>
<!DOCTYPE svg PUBLIC "-//W3C//DTD SVG 1.1//EN" "http://www.w3.org/Graphics/SVG/1.1/DTD/svg11.dtd">
<svg width="100%" height="100%" viewBox="0 0 257 256" version="1.1" xmlns="http://www.w3.org/2000/svg" xmlns:xlink="http://www.w3.org/1999/xlink" xml:space="preserve" xmlns:serif="http://www.serif.com/" style="fill-rule:evenodd;clip-rule:evenodd;stroke-linecap:round;stroke-linejoin:round;stroke-miterlimit:1.5;">
    <g id="_100-" serif:id="100%" transform="matrix(1,0,0,1,0.299827,-0.143355)">
        <rect x="-0.3" y="0.143" width="256.162" height="255.349" style="fill:none;"/>
        <g transform="matrix(0.238411,0,0,0.238411,-99.6696,-14.2646)">
            <g transform="matrix(1.23952,0,0,0.983227,-260.849,-168.991)">
                <path d="M971.849,884.449C971.849,884.449 974.198,874.846 976.992,796.223C980.334,702.166 960.083,672.307 907.105,666.181L802.027,667.611C791.883,667.611 731.736,670.451 727.728,762.096C724.578,834.123 727.224,884.449 727.224,884.449" style="fill:white;stroke:black;stroke-width:9.87px;"/>
            </g>
            <g transform="matrix(1.23952,0,0,0.983227,-261.037,-72.78)">
                <path d="M971.849,884.449L972,795.484C972,782.695 963.764,772.313 953.619,772.313L745.756,772.313C735.611,772.313 727.375,782.695 727.375,795.484L727.224,884.449" style="fill:white;stroke:black;stroke-width:9.87px;"/>
            </g>
            <g transform="matrix(8.45869,0,0,38.3255,-3968.98,-30386.6)">
                <path d="M543.969,811.21C543.969,810.542 541.513,810 538.484,810L538.484,810C535.455,810 533,810.542 533,811.21C533,812.957 533,815.977 533,815.977L543.969,815.977L543.969,811.21Z" style="fill:white;stroke:black;stroke-width:0.4px;"/>
            </g>
            <g transform="matrix(8.45869,0,0,50.9352,-3969.01,-40674.9)">
                <path d="M543.681,811.888C543.681,811.888 543.756,811.395 543.829,810.913C543.866,810.673 543.318,810.441 542.308,810.269C541.299,810.097 539.915,810 538.469,810L538.468,810C535.426,810 532.939,810.403 532.861,810.908C532.788,811.392 532.712,811.888 532.712,811.888" style="fill:none;stroke:black;stroke-width:0.3px;"/>
            </g>
            <g transform="matrix(0.769202,0,0,1.04203,142.076,-37.1392)">
                <path d="M566.125,890.555C564.461,896.484 538.406,963.922 538.406,963.922L601.219,966.211C601.219,966.211 617.865,888.297 621,893" style="fill:rgb(96,17,0);stroke:black;stroke-width:12.05px;"/>
            </g>
            <path d="M580.719,975.609C579.696,973.319 579.785,973.893 578,973" style="fill:none;stroke:black;stroke-width:11.04px;"/>
            <g transform="matrix(1.23952,0,0,0.983227,-262.787,33.9621)">
                <path d="M972,795.484C972,782.695 963.764,772.313 953.619,772.313L745.756,772.313C735.611,772.313 727.375,782.695 727.375,795.484L727.375,841.828C727.375,854.617 735.611,865 745.756,865L953.619,865C963.764,865 972,854.617 972,841.828L972,795.484Z" style="fill:white;stroke:black;stroke-width:9.87px;"/>
            </g>
            <g transform="matrix(1.23952,0,0,0.983227,-258.099,-227.882)">
                <path d="M977.118,822.615C977.118,822.615 974.198,874.846 976.992,796.223C980.334,702.166 960.083,672.307 907.105,666.181L802.027,667.611C791.883,667.611 731.736,670.451 727.728,762.096C724.578,834.123 724.904,831.213 724.904,831.213" style="fill:none;stroke:black;stroke-width:9.87px;"/>
            </g>
        </g>
        <g transform="matrix(-0.230738,-0.00387135,-0.00399952,0.238377,347.906,-10.9409)">
            <g transform="matrix(1.23952,-6.93889e-18,-3.46945e-17,0.983227,-260.849,-168.991)">
                <path d="M971.849,884.449C971.849,884.449 974.198,874.846 976.992,796.223C980.334,702.166 960.083,672.307 907.105,666.181L802.027,667.611C791.883,667.611 731.736,670.451 727.728,762.096C724.578,834.123 727.224,884.449 727.224,884.449" style="fill:white;stroke:black;stroke-width:10.06px;"/>
            </g>
            <g transform="matrix(1.23952,-6.93889e-18,-5.20417e-17,0.983227,-261.037,-72.78)">
                <path d="M971.849,884.449L972,795.484C972,782.695 963.764,772.313 953.619,772.313L745.756,772.313C735.611,772.313 727.375,782.695 727.375,795.484L727.224,884.449" style="fill:white;stroke:black;stroke-width:10.06px;"/>
            </g>
            <g transform="matrix(8.45869,0,0,38.3255,-3968.98,-30386.6)">
                <path d="M543.969,811.171C543.969,810.524 541.514,810 538.485,810L538.484,810C535.455,810 533,810.524 533,811.171C533,812.912 533,815.977 533,815.977L543.969,815.977L543.969,811.171Z" style="fill:white;stroke:black;stroke-width:0.4px;"/>
            </g>
            <g transform="matrix(8.45869,0,0,50.9352,-3969.01,-40674.9)">
                <path d="M543.681,811.888C543.681,811.888 543.759,811.374 543.834,810.882C543.869,810.65 543.321,810.426 542.312,810.26C541.304,810.094 539.921,810 538.477,810L538.477,810C535.431,810 532.94,810.391 532.866,810.88C532.791,811.373 532.712,811.888 532.712,811.888" style="fill:none;stroke:black;stroke-width:0.3px;"/>
            </g>
            <g transform="matrix(0.769202,0,0,1.04203,142.076,-37.1392)">
                <path d="M566.125,890.555C564.461,896.484 538.406,963.922 538.406,963.922L601.219,966.211C601.219,966.211 617.865,888.297 621,893" style="fill:rgb(96,17,0);stroke:black;stroke-width:12.19px;"/>
            </g>
            <path d="M580.719,975.609C579.696,973.319 579.785,973.893 578,973" style="fill:none;stroke:black;stroke-width:11.22px;"/>
            <g transform="matrix(1.23952,0,0,0.983227,-262.787,33.9621)">
                <path d="M972,795.484C972,782.695 963.764,772.313 953.619,772.313L745.756,772.313C735.611,772.313 727.375,782.695 727.375,795.484L727.375,841.828C727.375,854.617 735.611,865 745.756,865L953.619,865C963.764,865 972,854.617 972,841.828L972,795.484Z" style="fill:white;stroke:black;stroke-width:10.06px;"/>
            </g>
            <g transform="matrix(1.23952,0,0,0.983227,-258.099,-227.882)">
                <path d="M977.118,822.615C977.118,822.615 974.198,874.846 976.992,796.223C980.334,702.166 960.083,672.307 907.105,666.181L802.027,667.611C791.883,667.611 731.736,670.451 727.728,762.096C724.578,834.123 724.904,831.213 724.904,831.213" style="fill:none;stroke:black;stroke-width:10.06px;"/>
            </g>
        </g>
    </g>
</svg>
