<?xml version="1.0" encoding="UTF-8" standalone="no"?>
<!DOCTYPE svg PUBLIC "-//W3C//DTD SVG 1.1//EN" "http://www.w3.org/Graphics/SVG/1.1/DTD/svg11.dtd">
<svg width="100%" height="100%" viewBox="0 0 257 256" version="1.1" xmlns="http://www.w3.org/2000/svg" xmlns:xlink="http://www.w3.org/1999/xlink" xml:space="preserve" xmlns:serif="http://www.serif.com/" style="fill-rule:evenodd;clip-rule:evenodd;stroke-linecap:round;stroke-linejoin:round;stroke-miterlimit:1.5;">
    <g transform="matrix(1,0,0,1,-712,0)">
        <g id="_0-" serif:id="0%" transform="matrix(1,0,0,1,-0.162433,0)">
            <rect x="712.162" y="0" width="256.162" height="255.349" style="fill:none;"/>
            <g transform="matrix(0.0211029,0.202386,-0.202386,0.0211029,900.917,60.2732)">
                <g transform="matrix(8.27571,1.74985,-7.92841,37.4964,2597.19,-30655.8)">
                    <path d="M543.969,811.21C543.969,810.889 543.391,810.581 542.363,810.354C541.334,810.128 539.94,810 538.485,810L538.483,810C537.029,810 535.634,810.128 534.606,810.354C533.578,810.581 533,810.889 533,811.21C533,812.957 533,815.977 533,815.977L543.969,815.977L543.969,811.21Z" style="fill:white;stroke:black;stroke-width:0.47px;"/>
                </g>
                <g transform="matrix(8.27571,1.74985,-10.537,49.8334,4725.5,-40721.6)">
                    <path d="M534.888,811.545C534.888,811.545 534.888,811.545 534.888,811.545C532.77,811.537 530.729,811.676 529.251,811.928C527.772,812.179 526.987,812.522 527.084,812.873C527.434,814.141 527.902,815.839 527.902,815.839L532.764,815.824" style="fill:none;stroke:black;stroke-width:0.35px;"/>
                </g>
                <g transform="matrix(0.727481,-0.249886,0.338517,0.985509,-137.211,159.84)">
                    <path d="M566.125,890.555C564.461,896.484 538.406,963.922 538.406,963.922L601.219,966.211C601.219,966.211 617.865,888.297 621,893" style="fill:rgb(96,17,0);stroke:black;stroke-width:14.12px;"/>
                </g>
            </g>
            <g transform="matrix(0.20093,-0.0426563,0.0426563,0.20093,616.236,59.5556)">
                <g transform="matrix(1.21271,0.256421,-0.203401,0.961958,-31.7786,-230.122)">
                    <path d="M971.849,884.449L972,795.484C972,782.695 963.764,772.313 953.619,772.313L745.756,772.313C735.611,772.313 727.375,782.695 727.375,795.484L727.224,884.449" style="fill:white;stroke:black;stroke-width:11.45px;"/>
                </g>
                <g transform="matrix(1.21271,0.256421,-0.203401,0.961958,-55.5725,-126.05)">
                    <path d="M972,795.484C972,782.695 963.764,772.313 953.619,772.313L745.756,772.313C735.611,772.313 727.375,782.695 727.375,795.484L727.375,841.828C727.375,854.617 735.611,865 745.756,865L953.619,865C963.764,865 972,854.617 972,841.828L972,795.484Z" style="fill:white;stroke:black;stroke-width:11.45px;"/>
                </g>
                <g transform="matrix(1.21271,0.256421,-0.203401,0.961958,-11.6919,-324.213)">
                    <path d="M971.849,884.449C971.849,884.449 973.571,870.539 976.365,791.916C976.789,779.977 948.29,737.365 946.195,728.93C939.885,703.522 912.903,738.828 904.087,723.854C897.724,713.047 903.884,677.832 898.19,668.309C893.76,660.899 869.167,685.63 857.79,684.314L802.027,667.611C791.883,667.611 731.736,670.451 727.728,762.096C724.578,834.123 727.224,884.449 727.224,884.449" style="fill:none;stroke:black;stroke-width:11.45px;"/>
                </g>
                <g transform="matrix(1.21271,0.256421,-0.203401,0.961958,3.18133,-381.26)">
                    <path d="M977.118,822.615C977.118,822.615 980.234,874.818 976.992,796.223C976.566,785.895 964.064,742.632 956.356,746.81C913.73,769.911 997.423,686.494 925.365,727.708C883.395,751.713 922.429,712.274 901.267,711.203C889.712,710.618 861.442,688.988 849.532,687.33L782.894,668.456C772.749,668.456 714.718,668.046 711.667,759.75C710.114,806.426 727.377,929.993 727.377,929.993" style="fill:none;stroke:black;stroke-width:11.45px;"/>
                </g>
                <path d="M737.792,745.011C731.877,747.82 744.596,734.936 749,732C756.313,727.125 750.435,748.87 747,742C743.041,734.082 757.193,719.269 764,717C764.632,716.789 765.333,717 766,717C772.541,717 765.58,729.225 780,729.225C783.903,729.225 799.414,712.534 802,719C805.045,726.613 786.57,744.623 797.925,750.3C800.485,751.58 831.816,743.165 841,744C857.598,745.509 856.627,755.22 867,763C886.089,777.316 896.881,769.799 877.012,809.536" style="stroke:black;stroke-width:12.81px;"/>
                <g transform="matrix(0.969034,0.20572,-0.20572,0.969034,170.075,-153.745)">
                    <path d="M749,768.469C749,760.173 748.235,774.235 752,778C754.81,780.81 766.887,780.629 771,782C778.802,784.601 779.356,793.356 783,797C784.857,798.857 845.858,812.028 851,811C856.333,809.933 857.602,805.88 862,805C870.775,803.245 867.9,819.171 879,816C886.723,813.793 893.036,806.482 900,803" style="stroke:black;stroke-width:12.93px;"/>
                </g>
            </g>
            <g transform="matrix(0.203484,0,0,0.203484,632.794,23.0412)">
                <g transform="matrix(0.103609,-8.18696,-38.3224,-0.484985,32600,5678.57)">
                    <path d="M543.969,811.171C543.969,810.861 543.391,810.563 542.363,810.343C541.334,810.123 539.939,810 538.485,810L538.484,810C537.029,810 535.635,810.123 534.606,810.343C533.578,810.563 533,810.861 533,811.171L533,815.977L543.969,815.977L543.969,811.171Z" style="fill:white;stroke:black;stroke-width:0.47px;"/>
                </g>
                <g transform="matrix(-0.172411,-11.3466,-50.9293,0.773872,43019.4,6339.95)">
                    <path d="M541.645,815.513L546.108,815.502C546.108,815.502 545.605,813.556 545.262,812.231C545.089,811.561 542.544,811.046 539.538,811.072C539.537,811.072 539.537,811.072 539.537,811.072" style="fill:none;stroke:black;stroke-width:0.35px;"/>
                </g>
            </g>
            <g transform="matrix(0.203484,0,0,0.203484,637.641,2.30698)">
                <g transform="matrix(-1.19979,-0.00569939,-0.00467059,0.983215,2220.78,70.3883)">
                    <path d="M971.849,884.449L972,795.484C972,782.695 963.764,772.313 953.619,772.313L745.756,772.313C735.611,772.313 727.375,782.695 727.375,795.484L727.224,884.449" style="fill:white;stroke:black;stroke-width:11.79px;"/>
                </g>
                <g transform="matrix(-1.19979,-0.00569939,-0.00467059,0.983215,2221.97,177.137)">
                    <path d="M972,795.484C972,782.695 963.764,772.313 953.619,772.313L745.756,772.313C735.611,772.313 727.375,782.695 727.375,795.484L727.375,841.828C727.375,854.617 735.611,865 745.756,865L953.619,865C963.764,865 972,854.617 972,841.828L972,795.484Z" style="fill:white;stroke:black;stroke-width:11.79px;"/>
                </g>
                <g transform="matrix(-1.19979,-0.00569939,-0.00467059,0.983215,2221.06,-25.8224)">
                    <path d="M971.849,884.449C971.849,884.449 947.093,866.116 949.887,787.493C953.229,693.436 903.907,668.148 850.929,662.021L802.027,667.611C791.883,667.611 731.736,670.451 727.728,762.096C724.578,834.123 727.224,884.449 727.224,884.449" style="fill:none;stroke:black;stroke-width:11.79px;"/>
                </g>
                <g transform="matrix(-1.19979,-0.00569939,-0.00467059,0.983215,2218.67,-84.725)">
                    <path d="M951.742,857.051C951.742,857.051 934.433,843.15 943.218,765.187C949.937,705.549 902.796,670.641 849.817,664.515L770.914,666.552C760.769,666.552 731.736,670.451 727.728,762.096C724.578,834.123 724.904,831.213 724.904,831.213" style="fill:none;stroke:black;stroke-width:11.79px;"/>
                </g>
                <g transform="matrix(0.993407,-0.114641,0.114641,0.993407,-11.0733,181.979)">
                    <path d="M1084.47,640.664C1076.34,629.147 1149.6,662.418 1159.15,665.357C1176.48,670.69 1248,672.397 1248,686" style="stroke:black;stroke-width:12.93px;"/>
                </g>
                <g transform="matrix(0.993407,-0.114641,0.114641,0.993407,-11.0733,181.979)">
                    <path d="M1084.47,640.664C1079.61,641.744 1060.99,676.828 1069,682C1076.82,687.048 1089.46,674.306 1095,678C1100.7,681.797 1092.55,695.874 1095.69,700.584C1099.41,706.165 1104.67,702.796 1107,709C1108.15,712.065 1107.87,720.748 1111,722C1118.13,724.851 1124.59,715.911 1132,723C1139.42,730.098 1143.46,755.513 1163,749C1189.64,740.119 1235,747.252 1235,708C1235,703.728 1252.14,688.07 1248,686" style="stroke:black;stroke-width:12.93px;"/>
                </g>
            </g>
            <g transform="matrix(0.0101443,-0.151164,-0.225176,-0.0151111,1102.97,328.396)">
                <path d="M566.125,890.555C564.461,896.484 538.406,963.922 538.406,963.922L601.219,966.211C601.219,966.211 617.865,888.297 621,893L566.125,890.555Z" style="fill:rgb(96,17,0);stroke:black;stroke-width:13.69px;"/>
            </g>
        </g>
    </g>
</svg>
