<?xml version="1.0" encoding="UTF-8" standalone="no"?>
<!DOCTYPE svg PUBLIC "-//W3C//DTD SVG 1.1//EN" "http://www.w3.org/Graphics/SVG/1.1/DTD/svg11.dtd">
<svg width="100%" height="100%" viewBox="0 0 257 256" version="1.1" xmlns="http://www.w3.org/2000/svg" xmlns:xlink="http://www.w3.org/1999/xlink" xml:space="preserve" xmlns:serif="http://www.serif.com/" style="fill-rule:evenodd;clip-rule:evenodd;stroke-linecap:round;stroke-linejoin:round;stroke-miterlimit:1.5;">
    <g transform="matrix(1,0,0,1,-356,0)">
        <g id="_50-" serif:id="50%" transform="matrix(1,0,0,1,-0.162433,0)">
            <rect x="356.162" y="0" width="256.162" height="255.349" style="fill:none;"/>
            <g transform="matrix(0.236301,0.0499646,-0.0499646,0.236301,287.602,-41.1484)">
                <g transform="matrix(1.23952,-2.77556e-16,1.66533e-16,0.983227,-260.849,-168.991)">
                    <path d="M971.849,884.449C971.849,884.449 974.198,874.846 976.992,796.223C980.334,702.166 960.083,672.307 907.105,666.181L802.027,667.611C791.883,667.611 731.736,670.451 727.728,762.096C724.578,834.123 727.224,884.449 727.224,884.449" style="fill:white;stroke:black;stroke-width:9.74px;"/>
                </g>
                <g transform="matrix(8.45869,-1.77636e-15,1.59872e-14,50.9352,-3969.01,-40674.9)">
                    <path d="M543.681,811.888C543.681,811.888 542.782,811.393 541.92,810.918C541.031,810.428 538.081,810.125 535.041,810.211C535.041,810.211 535.041,810.211 535.041,810.211C532.016,810.297 529.9,810.755 530.187,811.263C531.063,812.813 532.764,815.824 532.764,815.824" style="fill:white;stroke:black;stroke-width:0.3px;"/>
                </g>
                <g transform="matrix(8.45869,0,0,38.3255,-3968.98,-30386.6)">
                    <path d="M543.969,811.21C543.969,810.889 543.391,810.582 542.362,810.355C541.334,810.128 539.939,810 538.485,810L538.484,810C537.03,810 535.635,810.128 534.606,810.355C533.578,810.582 533,810.889 533,811.21C533,812.957 533,815.977 533,815.977L543.969,815.977L543.969,811.21Z" style="fill:white;stroke:black;stroke-width:0.39px;"/>
                </g>
                <g transform="matrix(0.769202,0,0,1.04203,142.076,-37.1392)">
                    <path d="M566.125,890.555C564.461,896.484 538.406,963.922 538.406,963.922L601.219,966.211C601.219,966.211 617.865,888.297 621,893" style="fill:rgb(96,17,0);stroke:black;stroke-width:11.9px;"/>
                </g>
                <path d="M580.719,975.609C579.696,973.319 579.785,973.893 578,973" style="fill:none;stroke:black;stroke-width:10.9px;"/>
                <g transform="matrix(1.23952,0,1.94289e-16,0.983227,-261.037,-72.78)">
                    <path d="M971.849,884.449L972,795.484C972,782.695 963.764,772.313 953.619,772.313L745.756,772.313C735.611,772.313 727.375,782.695 727.375,795.484L727.224,884.449" style="fill:white;stroke:black;stroke-width:9.74px;"/>
                </g>
                <g transform="matrix(1.23952,0,0,0.983227,-262.787,33.9621)">
                    <path d="M972,795.484C972,782.695 963.764,772.313 953.619,772.313L745.756,772.313C735.611,772.313 727.375,782.695 727.375,795.484L727.375,841.828C727.375,854.617 735.611,865 745.756,865L953.619,865C963.764,865 972,854.617 972,841.828L972,795.484Z" style="fill:white;stroke:black;stroke-width:9.74px;"/>
                </g>
                <g transform="matrix(1.23952,0,0,0.983227,-258.099,-227.882)">
                    <path d="M977.118,822.615C977.118,822.615 980.234,874.818 976.992,796.223C970.757,645.066 917.202,672.757 866.225,665.659L782.894,668.456C772.749,668.456 714.718,668.046 711.667,759.75C710.114,806.426 727.377,929.993 727.377,929.993" style="fill:none;stroke:black;stroke-width:9.74px;"/>
                </g>
            </g>
            <g transform="matrix(-0.232114,-0.0279044,-0.0288282,0.239799,713.128,29.3828)">
                <g transform="matrix(-4.24684,-0.494186,-0.510547,4.11075,3042.85,231.553)">
                    <path d="M541.338,202.924L539.633,219.119L566.543,220.823L587.851,195.984L582.007,173.214L541.338,202.924Z" style="fill:white;stroke:white;stroke-width:2.63px;"/>
                </g>
                <g transform="matrix(9.51705,-6.62662,30.7285,41.3486,-29568.1,-29270.4)">
                    <path d="M544.059,814.482C544.059,814.482 544.249,812.782 544.375,811.646C544.44,811.066 542.658,810.557 540.118,810.429C540.118,810.429 540.118,810.429 540.118,810.429C538.571,810.351 536.967,810.488 536.049,810.776C535.008,811.103 533.814,811.477 533.814,811.477" style="fill:white;stroke:black;stroke-width:0.3px;"/>
                </g>
                <g transform="matrix(6.72646,-4.9644,24.0072,30.4769,-22601.6,-21299.8)">
                    <path d="M543.969,811.171C543.969,810.861 543.391,810.563 542.363,810.343C541.334,810.123 539.939,810 538.485,810L538.484,810C537.029,810 535.635,810.123 534.606,810.343C533.578,810.563 533,810.861 533,811.171L533,815.977L543.969,815.977L543.969,811.171Z" style="fill:white;stroke:black;stroke-width:0.39px;"/>
                </g>
                <g transform="matrix(1.23952,0,0,0.983227,-260.849,-168.991)">
                    <path d="M971.849,884.449C971.849,884.449 947.093,866.116 949.887,787.493C953.229,693.436 903.907,668.148 850.929,662.021L802.027,667.611C791.883,667.611 731.736,670.451 727.728,762.096C724.578,834.123 727.224,884.449 727.224,884.449" style="fill:white;stroke:black;stroke-width:9.93px;"/>
                </g>
                <g transform="matrix(1.23952,0,1.38778e-17,0.983227,-261.037,-72.78)">
                    <path d="M971.849,884.449L972,795.484C972,782.695 963.764,772.313 953.619,772.313L745.756,772.313C735.611,772.313 727.375,782.695 727.375,795.484L727.224,884.449" style="fill:white;stroke:black;stroke-width:9.93px;"/>
                </g>
                <g transform="matrix(1.23952,0,1.38778e-17,0.983227,-262.787,33.9621)">
                    <path d="M972,795.484C972,782.695 963.764,772.313 953.619,772.313L745.756,772.313C735.611,772.313 727.375,782.695 727.375,795.484L727.375,841.828C727.375,854.617 735.611,865 745.756,865L953.619,865C963.764,865 972,854.617 972,841.828L972,795.484Z" style="fill:white;stroke:black;stroke-width:9.93px;"/>
                </g>
                <g transform="matrix(1.23952,0,0,0.983227,-258.099,-227.882)">
                    <path d="M951.742,857.051C951.742,857.051 934.433,843.15 943.218,765.187C949.937,705.549 902.796,670.641 849.817,664.515L770.914,666.552C760.769,666.552 731.736,670.451 727.728,762.096C724.578,834.123 724.904,831.213 724.904,831.213" style="fill:none;stroke:black;stroke-width:9.93px;"/>
                </g>
                <g transform="matrix(-1.02572,-0.119359,-0.12331,0.992851,2044.13,49.4113)">
                    <path d="M1083.28,642.937C1075.15,631.42 1143.7,673.457 1153.25,676.396C1170.58,681.729 1233,679.397 1233,693" style="stroke:black;stroke-width:10.9px;"/>
                </g>
                <g transform="matrix(-1.02572,-0.119359,-0.12331,0.992851,2044.13,49.4113)">
                    <path d="M1083.28,642.937C1078.42,644.018 1060.99,676.828 1069,682C1076.82,687.048 1089.46,674.306 1095,678C1100.7,681.797 1092.55,695.874 1095.69,700.584C1099.41,706.165 1104.67,702.796 1107,709C1108.15,712.065 1107.87,720.748 1111,722C1118.13,724.851 1124.59,715.911 1132,723C1139.42,730.098 1143.46,755.513 1163,749C1189.64,740.119 1235,747.252 1235,708C1235,703.728 1237.14,695.07 1233,693" style="stroke:black;stroke-width:10.9px;"/>
                </g>
                <g transform="matrix(-1.02572,-0.119359,-0.12331,0.992851,2044.13,49.4113)">
                    <path d="M747.992,747.295C747.992,738.999 748.235,774.235 752,778C754.81,780.81 766.887,780.629 771,782C778.802,784.601 779.356,793.356 783,797C784.857,798.857 845.858,812.028 851,811C856.333,809.933 857.602,805.88 862,805C870.775,803.245 867.9,819.171 879,816C886.723,813.793 893.036,806.482 900,803" style="stroke:black;stroke-width:10.9px;"/>
                </g>
                <g transform="matrix(-1.02572,-0.119359,-0.12331,0.992851,2044.13,49.4113)">
                    <path d="M750.313,757.852C744.398,760.661 744.596,734.936 749,732C756.313,727.125 750.435,748.87 747,742C743.041,734.082 757.193,719.269 764,717C764.632,716.789 765.333,717 766,717C772.541,717 765.58,729.225 780,729.225C783.903,729.225 799.414,712.534 802,719C805.045,726.613 786.57,744.623 797.925,750.3C800.485,751.58 831.816,743.165 841,744C857.598,745.509 856.627,755.22 867,763C886.089,777.316 920.869,771.262 901,811" style="stroke:black;stroke-width:10.9px;"/>
                </g>
            </g>
            <g transform="matrix(0.0120409,-0.179425,-0.251112,-0.0168516,819.291,336.18)">
                <path d="M566.125,890.555C564.461,896.484 538.406,963.922 538.406,963.922L601.219,966.211C601.219,966.211 617.865,888.297 621,893L566.125,890.555Z" style="fill:rgb(96,17,0);stroke:black;stroke-width:12.03px;"/>
            </g>
        </g>
    </g>
</svg>
