<?xml version="1.0" encoding="UTF-8" standalone="no"?>
<!DOCTYPE svg PUBLIC "-//W3C//DTD SVG 1.1//EN" "http://www.w3.org/Graphics/SVG/1.1/DTD/svg11.dtd">
<svg width="100%" height="100%" viewBox="0 0 257 256" version="1.1" xmlns="http://www.w3.org/2000/svg" xmlns:xlink="http://www.w3.org/1999/xlink" xml:space="preserve" xmlns:serif="http://www.serif.com/" style="fill-rule:evenodd;clip-rule:evenodd;stroke-linecap:round;stroke-linejoin:round;stroke-miterlimit:1.5;">
    <g transform="matrix(1,0,0,1,-712,0)">
        <g id="_0-" serif:id="0%" transform="matrix(1,0,0,1,-0.162433,0)">
            <rect x="712.162" y="0" width="256.162" height="255.349" style="fill:none;"/>
            <g transform="matrix(1,0,0,1,356.162,0)">
                <path d="M394.137,234.142C410.293,241.28 425.625,241.829 444.317,236.283C444.566,217.416 459.494,210.44 463.58,189.67C465.496,171.938 447.263,170.623 431.475,167.315C426.305,167.572 422.375,164.522 419.108,159.705C415.603,164.939 411.832,167.788 407.693,167.315L403.412,161.845C390.713,178.017 382.343,165.413 374.636,174.688C377.224,204.773 400.095,207.765 394.137,234.142Z" style="fill:white;"/>
                <clipPath id="_clip1">
                    <path d="M394.137,234.142C410.293,241.28 425.625,241.829 444.317,236.283C444.566,217.416 459.494,210.44 463.58,189.67C465.496,171.938 447.263,170.623 431.475,167.315C426.305,167.572 422.375,164.522 419.108,159.705C415.603,164.939 411.832,167.788 407.693,167.315L403.412,161.845C390.713,178.017 382.343,165.413 374.636,174.688C377.224,204.773 400.095,207.765 394.137,234.142Z"/>
                </clipPath>
                <g clip-path="url(#_clip1)">
                    <path d="M376.776,178.73C385.191,187.006 397.003,174.086 405.79,177.066C405.216,182.625 406.365,186.172 409.595,187.292C415.382,184.045 421.094,181.094 426.243,180.395C430.687,190.743 436.543,198.031 444.793,200.134C451,201.793 457.929,195.542 462.867,188.957" style="fill:none;stroke:black;stroke-width:7.78px;"/>
                </g>
                <path d="M394.137,234.142C410.293,241.28 425.625,241.829 444.317,236.283C444.566,217.416 459.494,210.44 463.58,189.67C465.496,171.938 447.263,170.623 431.475,167.315C426.305,167.572 422.375,164.522 419.108,159.705C415.603,164.939 411.832,167.788 407.693,167.315L403.412,161.845C390.713,178.017 382.343,165.413 374.636,174.688C377.224,204.773 400.095,207.765 394.137,234.142Z" style="fill:none;stroke:black;stroke-width:7.78px;"/>
            </g>
            <g transform="matrix(1,0,0,1,0.162433,0)">
                <path d="M832.997,241.633L852.736,215.711L901.964,212.381L889.36,229.267L832.997,241.633Z" style="fill:white;stroke:black;stroke-width:7.78px;"/>
            </g>
            <g transform="matrix(1,0,0,1,0.162433,0)">
                <path d="M887.457,177.184L872.475,205.247L913.379,193.832L887.457,177.184" style="fill:white;stroke:black;stroke-width:7.78px;"/>
            </g>
            <g transform="matrix(1,0,0,1,0.162433,0)">
                <path d="M903.867,202.155L910.526,246.152L952.382,227.126L903.867,202.155Z" style="fill:white;stroke:black;stroke-width:7.78px;"/>
            </g>
            <g transform="matrix(1,0,0,1,0.162433,0)">
                <path d="M848.93,219.992L828.24,209.765L845.601,201.204L871.999,205.96L848.93,219.992Z" style="fill:white;stroke:black;stroke-width:7.78px;"/>
            </g>
        </g>
    </g>
</svg>
