<?xml version="1.0" encoding="UTF-8" standalone="no"?>
<!DOCTYPE svg PUBLIC "-//W3C//DTD SVG 1.1//EN" "http://www.w3.org/Graphics/SVG/1.1/DTD/svg11.dtd">
<svg width="100%" height="100%" viewBox="0 0 257 256" version="1.1" xmlns="http://www.w3.org/2000/svg" xmlns:xlink="http://www.w3.org/1999/xlink" xml:space="preserve" xmlns:serif="http://www.serif.com/" style="fill-rule:evenodd;clip-rule:evenodd;stroke-linecap:round;stroke-linejoin:round;stroke-miterlimit:1.5;">
    <g transform="matrix(1,0,0,1,-356,0)">
        <g id="_50-" serif:id="50%" transform="matrix(1,0,0,1,-0.162433,0)">
            <rect x="356.162" y="0" width="256.162" height="255.349" style="fill:none;"/>
            <g transform="matrix(1,0,0,1,0.162433,0)">
                <path d="M394.137,234.142C410.293,241.28 425.625,241.829 444.317,236.283C444.566,217.416 459.494,210.44 463.58,189.67C465.496,171.938 447.263,170.623 431.475,167.315C426.305,167.572 422.375,164.522 419.108,159.705C415.603,164.939 411.832,167.788 407.693,167.315L403.412,161.845C390.713,178.017 382.343,165.413 374.636,174.688C377.224,204.773 400.095,207.765 394.137,234.142Z" style="fill:white;stroke:black;stroke-width:7.78px;"/>
            </g>
            <g transform="matrix(1,0,0,1,0.162433,0)">
                <path d="M376.776,178.73C385.191,187.006 397.003,174.086 405.79,177.066C405.216,182.625 406.365,186.172 409.595,187.292C415.382,184.045 421.094,181.094 426.243,180.395C430.687,190.743 436.543,198.031 444.793,200.134C451,201.793 457.929,195.542 462.867,188.957" style="fill:none;stroke:black;stroke-width:7.78px;"/>
            </g>
            <g transform="matrix(1,0,0,1,0.162433,0)">
                <path d="M489.978,154.473C494.115,161.749 498.073,169.108 492.594,180.871C485.824,181.47 483.114,182.808 483.32,184.676C486.865,191.185 489.049,196.559 488.789,199.896C482.394,206.867 468.163,208.019 470.002,220.587C472.99,225.141 475.416,230.54 477.136,236.996C513.662,233.274 510.743,213.034 530.408,212.501C550.702,218.416 555.775,242.757 568.459,247.698C575.939,245.874 583.139,245.638 586.771,236.758L591.29,157.802C590.755,151.43 585.166,149.27 577.02,149.241C562.22,154.228 552.773,170.765 529.694,180.157C509.037,175.832 510.258,148.014 489.978,154.473Z" style="fill:white;stroke:black;stroke-width:7.78px;"/>
            </g>
        </g>
    </g>
</svg>
